<svg width="56" height="56" viewBox="0 0 56 56" fill="none" xmlns="http://www.w3.org/2000/svg">
<path d="M28.875 47.2483H10.4271C9.98229 47.2483 9.55572 47.0716 9.24121 46.7571C8.92669 46.4426 8.75 46.016 8.75 45.5712V27.1232C8.75 24.4804 9.27055 21.8634 10.2819 19.4218C11.2933 16.9801 12.7757 14.7615 14.6445 12.8928C16.5132 11.024 18.7318 9.54159 21.1735 8.53021C23.6151 7.51884 26.2321 6.99829 28.875 6.99829H28.875C31.5179 6.99829 34.1348 7.51884 36.5765 8.53022C39.0182 9.54159 41.2367 11.024 43.1055 12.8928C44.9743 14.7615 46.4567 16.9801 47.4681 19.4218C48.4795 21.8635 49 24.4804 49 27.1233V27.1233C49 32.4608 46.8797 37.5797 43.1055 41.3538C39.3314 45.128 34.2125 47.2483 28.875 47.2483Z" stroke="white" stroke-width="2" stroke-linecap="round" stroke-linejoin="round"/>
<path d="M21.8751 24.4983H35.0001" stroke="white" stroke-width="2" stroke-linecap="round" stroke-linejoin="round"/>
<path d="M21.8751 31.4983H35.0001" stroke="white" stroke-width="2" stroke-linecap="round" stroke-linejoin="round"/>
</svg>
