<svg width="22" height="108" viewBox="0 0 22 108" fill="none" xmlns="http://www.w3.org/2000/svg">
<line x1="11" y1="16" x2="11" y2="108" stroke="url(#paint0_linear_501:113)" stroke-width="2"/>
<path d="M10.2309 24.4822L0.0762971 1.26843C-0.0827911 0.898791 0.011985 0.45773 0.313237 0.200594C0.614489 -0.0583288 1.04267 -0.0672571 1.35239 0.179166L10.9992 7.81291L20.6461 0.179166C20.9558 -0.0672562 21.3857 -0.0583278 21.6852 0.198809C21.89 0.372019 22 0.630941 22 0.893435C22 1.02022 21.9746 1.147 21.9222 1.26664L11.7676 24.4804C11.6288 24.7982 11.3292 25 10.9992 25C10.6692 25 10.3696 24.7982 10.2309 24.4822Z" fill="url(#paint1_linear_501:113)"/>
<defs>
<linearGradient id="paint0_linear_501:113" x1="10" y1="18.1647" x2="10" y2="108" gradientUnits="userSpaceOnUse">
<stop stop-color="#FF9001"/>
<stop offset="1" stop-color="#FF9001" stop-opacity="0"/>
</linearGradient>
<linearGradient id="paint1_linear_501:113" x1="9.96875" y1="26.7857" x2="9.96875" y2="-1.42857" gradientUnits="userSpaceOnUse">
<stop stop-color="#FFB800"/>
<stop offset="1" stop-color="#FF7A00"/>
</linearGradient>
</defs>
</svg>
