<svg width="32" height="32" viewBox="0 0 32 32" fill="none" xmlns="http://www.w3.org/2000/svg">
<path fill-rule="evenodd" clip-rule="evenodd" d="M20.0837 11.8338C20.2761 11.643 20.5359 11.5357 20.8068 11.5349C21.0778 11.5342 21.3381 11.6401 21.5316 11.8298C21.7251 12.0195 21.8361 12.2777 21.8408 12.5486C21.8454 12.8195 21.7432 13.0813 21.5563 13.2775L16.0673 20.1388C15.9729 20.2404 15.8591 20.3219 15.7325 20.3785C15.6059 20.4351 15.4693 20.4656 15.3306 20.4682C15.192 20.4708 15.0543 20.4453 14.9257 20.3935C14.7971 20.3416 14.6803 20.2643 14.5823 20.1663L10.9454 16.528C10.8441 16.4336 10.7628 16.3198 10.7065 16.1933C10.6501 16.0668 10.6198 15.9302 10.6173 15.7917C10.6149 15.6533 10.6404 15.5157 10.6922 15.3873C10.7441 15.2589 10.8213 15.1423 10.9192 15.0443C11.0172 14.9464 11.1338 14.8692 11.2622 14.8174C11.3906 14.7655 11.5282 14.74 11.6666 14.7425C11.8051 14.7449 11.9417 14.7752 12.0682 14.8316C12.1947 14.8879 12.3085 14.9692 12.4029 15.0705L15.2822 17.9484L20.0575 11.864C20.0661 11.8534 20.0752 11.8433 20.085 11.8338H20.0837Z" fill="#17B958"/>
<circle cx="16" cy="16" r="15" stroke="#17B958" stroke-width="2"/>
</svg>
