<svg width="20" height="20" viewBox="0 0 20 20" fill="none" xmlns="http://www.w3.org/2000/svg">
<path d="M20 10C20 15.5227 15.5226 20 9.99981 20C4.47701 20 0 15.5227 0 10C0 4.47732 4.47701 0 9.99981 0C15.5226 0 20 4.47732 20 10Z" fill="#D2763E"/>
<path d="M19.4266 10.0389C19.4266 15.2253 15.2221 19.4297 10.0356 19.4297C4.84906 19.4297 0.644958 15.2253 0.644958 10.0389C0.644958 4.85248 4.84906 0.648071 10.0356 0.648071C15.2221 0.648071 19.4266 4.85248 19.4266 10.0389Z" fill="#FECB50"/>
<path d="M17.206 10.0389C17.206 13.9984 13.9956 17.2087 10.0356 17.2087C6.07566 17.2087 2.86523 13.9984 2.86523 10.0389C2.86523 6.0794 6.07566 2.86865 10.0356 2.86865C13.9956 2.86865 17.206 6.07901 17.206 10.0389Z" fill="#BF6718"/>
<path d="M16.8191 10.0389C16.8191 11.3768 16.4224 12.6846 15.6791 13.797C14.9358 14.9094 13.8793 15.7764 12.6433 16.2884C11.4072 16.8004 10.0471 16.9343 8.73492 16.6733C7.42273 16.4123 6.21741 15.7681 5.27138 14.822C4.32535 13.876 3.68109 12.6707 3.42008 11.3586C3.15907 10.0464 3.29303 8.68632 3.80502 7.4503C4.31701 6.21427 5.18403 5.15782 6.29645 4.41454C7.40887 3.67126 8.71672 3.27454 10.0546 3.27454C11.8487 3.27454 13.5692 3.98721 14.8378 5.25578C16.1064 6.52434 16.8191 8.24489 16.8191 10.0389Z" fill="#F6A33E"/>
<path d="M3.10699 11.8886L1.15501 13.0938C0.815823 12.1109 0.643169 11.0783 0.644169 10.0385C0.644169 9.95843 0.646113 9.8799 0.648057 9.80215L3.07784 8.29883C2.78475 9.47874 2.79478 10.7136 3.10699 11.8886Z" fill="#FFF151"/>
<path d="M16.7387 3.46417L14.7886 4.66932C13.8791 3.86195 12.7787 3.29996 11.5914 3.03654L14.0231 1.53516C15.0362 2.01085 15.9559 2.66417 16.7387 3.46417Z" fill="#FFF151"/>
<path d="M4.27638 14.3133L2.38349 15.4819C2.08562 15.0652 1.82307 14.6244 1.59857 14.164L3.49885 12.99C3.71072 13.4572 3.97135 13.9008 4.27638 14.3133Z" fill="#BF6718"/>
<path d="M18.3271 5.62918L16.4354 6.80323C16.2037 6.34456 15.9227 5.91255 15.5972 5.51489L17.4967 4.34045C17.8087 4.74635 18.0864 5.1774 18.3271 5.62918Z" fill="#BF6718"/>
<path d="M8.48167 17.0396L6.04762 18.5437C5.21494 18.1538 4.4445 17.6429 3.76129 17.0276L5.75371 15.7925C6.56474 16.3962 7.49447 16.8212 8.48167 17.0396Z" fill="#F69F1D"/>
<path d="M19.4269 10.0385C19.4269 10.1162 19.4269 10.1983 19.4234 10.2764L16.9769 11.7887C17.238 10.8095 17.2764 9.78422 17.0893 8.78824L19.0926 7.55005C19.3151 8.36079 19.4275 9.19777 19.4269 10.0385Z" fill="#F69F1D"/>
<path d="M11.9989 11.3371C11.9989 9.94559 11.07 9.54659 10.0652 9.322L9.5326 9.2081C8.74504 9.04462 8.68427 8.80341 8.68427 8.48053C8.68427 8.06155 9.04186 7.81115 9.64089 7.81115C10.3503 7.81115 10.532 8.1874 10.6075 8.47003L10.6146 8.49351C10.7039 8.73997 10.9112 8.88697 11.1699 8.88697C11.2369 8.88697 11.2971 8.87618 11.3421 8.86656C11.6197 8.80822 11.8131 8.57489 11.8131 8.29853C11.8131 8.22999 11.8014 8.16203 11.7777 8.09596C11.6355 7.61296 11.2358 6.85272 10.1282 6.67918V5.85083C10.1282 5.16089 9.1047 5.16089 9.1047 5.85083V6.68413C7.91494 6.88072 7.47682 7.73531 7.47682 8.48024C7.47682 9.83563 8.37073 10.2135 9.24393 10.4037L9.82003 10.5329C10.6405 10.709 10.7851 10.9349 10.7851 11.3441C10.7851 11.8442 10.3847 12.1423 9.7134 12.1423C8.842 12.1423 8.66438 11.728 8.54559 11.2629C8.47612 11.0055 8.25582 10.8397 7.98414 10.8397C7.92488 10.8397 7.87737 10.848 7.82005 10.8584L7.80278 10.8619C7.52185 10.9323 7.33331 11.1659 7.33331 11.4429C7.33331 11.4955 7.34215 11.5403 7.34933 11.5765L7.35817 11.6179C7.48455 12.0689 7.76356 13.0541 9.15512 13.2738V14.1408C9.15512 14.486 9.4123 14.6667 9.66672 14.6667C9.92113 14.6667 10.1786 14.486 10.1786 14.1408V13.289C11.2836 13.137 12 12.3917 12 11.3373" fill="#2E3648"/>
</svg>
