<svg width="20" height="20" viewBox="0 0 20 20" fill="none" xmlns="http://www.w3.org/2000/svg">
<path fill-rule="evenodd" clip-rule="evenodd" d="M3.58331 2.66665H16.4166C16.6598 2.66665 16.8929 2.76322 17.0648 2.93513C17.2367 3.10704 17.3333 3.3402 17.3333 3.58331V16.4166C17.3333 16.6598 17.2367 16.8929 17.0648 17.0648C16.8929 17.2367 16.6598 17.3333 16.4166 17.3333H3.58331C3.3402 17.3333 3.10704 17.2367 2.93513 17.0648C2.76322 16.8929 2.66665 16.6598 2.66665 16.4166V3.58331C2.66665 3.3402 2.76322 3.10704 2.93513 2.93513C3.10704 2.76322 3.3402 2.66665 3.58331 2.66665ZM0.833313 3.58331C0.833313 2.85397 1.12304 2.15449 1.63877 1.63877C2.15449 1.12304 2.85397 0.833313 3.58331 0.833313H16.4166C17.146 0.833313 17.8455 1.12304 18.3612 1.63877C18.8769 2.15449 19.1666 2.85397 19.1666 3.58331V16.4166C19.1666 17.146 18.8769 17.8455 18.3612 18.3612C17.8455 18.8769 17.146 19.1666 16.4166 19.1666H3.58331C2.85397 19.1666 2.15449 18.8769 1.63877 18.3612C1.12304 17.8455 0.833313 17.146 0.833313 16.4166V3.58331ZM9.99998 9.99998C7.46906 9.99998 5.41665 7.53781 5.41665 4.49998H7.24998C7.24998 6.85215 8.78081 8.16665 9.99998 8.16665C11.2191 8.16665 12.75 6.85215 12.75 4.49998H14.5833C14.5833 7.53781 12.5309 9.99998 9.99998 9.99998Z" fill="#FEAF50"/>
</svg>
