<svg width="24" height="24" viewBox="0 0 24 24" fill="none" xmlns="http://www.w3.org/2000/svg">
<g clip-path="url(#clip0_323:36041)">
<path d="M11.9804 0C5.67969 0 0.511443 4.85925 0.0231934 11.0355L6.45294 13.6957C7.01704 13.311 7.68414 13.1056 8.36694 13.1063C8.42919 13.1062 8.49219 13.11 8.55444 13.11L11.4142 8.96925V8.91075C11.4142 6.41475 13.4414 4.3875 15.9374 4.3875C18.4334 4.3875 20.4644 6.4185 20.4644 8.9145C20.4629 10.1143 19.9853 11.2645 19.1365 12.1125C18.2878 12.9605 17.1372 13.4372 15.9374 13.4377H15.8362L11.7577 16.3478C11.7577 16.4025 11.7614 16.4535 11.7614 16.5082C11.7614 18.3832 10.2457 19.9028 8.37069 19.9028C6.73794 19.9028 5.35494 18.7305 5.03844 17.1765L0.437193 15.27C1.86294 20.3092 6.48444 24.0007 11.9804 24.0007C18.6052 24.0007 23.9767 18.63 23.9767 12.0007C23.9767 5.3715 18.6059 0.00075 11.9804 0.00075V0ZM7.53894 18.2108L6.06594 17.601C6.33721 18.1646 6.80543 18.6093 7.38219 18.8512C8.00649 19.1097 8.70778 19.1101 9.33239 18.8524C9.957 18.5948 10.454 18.1 10.7144 17.4765C10.8437 17.1679 10.9105 16.8368 10.9112 16.5023C10.9118 16.1677 10.8462 15.8363 10.7182 15.5272C10.5919 15.2165 10.4048 14.9342 10.168 14.6967C9.93117 14.4592 9.64931 14.2714 9.33894 14.1442C8.74095 13.8945 8.06999 13.8832 7.46394 14.1127L8.98344 14.742C9.94044 15.144 10.3934 16.242 9.99519 17.199C9.59694 18.156 8.49519 18.609 7.53819 18.2108H7.53894ZM18.9532 8.90625C18.9524 8.10732 18.6349 7.34128 18.0704 6.77599C17.5058 6.21071 16.7401 5.89229 15.9412 5.8905C15.1414 5.8905 14.3743 6.20823 13.8087 6.77379C13.2432 7.33936 12.9254 8.10642 12.9254 8.90625C12.9254 9.70608 13.2432 10.4731 13.8087 11.0387C14.3743 11.6043 15.1414 11.922 15.9412 11.922C16.7403 11.9208 17.5063 11.6026 18.071 11.0372C18.6357 10.4718 18.953 9.70537 18.9532 8.90625ZM13.6837 8.9025C13.6837 7.6485 14.6954 6.63675 15.9457 6.63675C17.1959 6.63675 18.2152 7.6485 18.2152 8.9025C18.2152 10.1528 17.1959 11.1683 15.9457 11.1683C14.6954 11.1683 13.6837 10.1528 13.6837 8.9025Z" fill="white"/>
</g>
<defs>
<clipPath id="clip0_323:36041">
<rect width="24" height="24" fill="white"/>
</clipPath>
</defs>
</svg>
