<svg width="21" height="21" viewBox="0 0 21 21" fill="none" xmlns="http://www.w3.org/2000/svg">
<path d="M2.625 13.7812C2.625 13.6072 2.69414 13.4403 2.81721 13.3172C2.94028 13.1941 3.1072 13.125 3.28125 13.125H7.21875C7.3928 13.125 7.55972 13.1941 7.68279 13.3172C7.80586 13.4403 7.875 13.6072 7.875 13.7812C7.875 13.9553 7.80586 14.1222 7.68279 14.2453C7.55972 14.3684 7.3928 14.4375 7.21875 14.4375H3.28125C3.1072 14.4375 2.94028 14.3684 2.81721 14.2453C2.69414 14.1222 2.625 13.9553 2.625 13.7812ZM2.625 9.84375C2.625 9.6697 2.69414 9.50278 2.81721 9.37971C2.94028 9.25664 3.1072 9.1875 3.28125 9.1875H12.4688C12.6428 9.1875 12.8097 9.25664 12.9328 9.37971C13.0559 9.50278 13.125 9.6697 13.125 9.84375C13.125 10.0178 13.0559 10.1847 12.9328 10.3078C12.8097 10.4309 12.6428 10.5 12.4688 10.5H3.28125C3.1072 10.5 2.94028 10.4309 2.81721 10.3078C2.69414 10.1847 2.625 10.0178 2.625 9.84375ZM2.625 5.90625C2.625 5.7322 2.69414 5.56528 2.81721 5.44221C2.94028 5.31914 3.1072 5.25 3.28125 5.25H17.7188C17.8928 5.25 18.0597 5.31914 18.1828 5.44221C18.3059 5.56528 18.375 5.7322 18.375 5.90625C18.375 6.0803 18.3059 6.24722 18.1828 6.37029C18.0597 6.49336 17.8928 6.5625 17.7188 6.5625H3.28125C3.1072 6.5625 2.94028 6.49336 2.81721 6.37029C2.69414 6.24722 2.625 6.0803 2.625 5.90625Z" fill="white"/>
</svg>
