<svg width="22" height="22" viewBox="0 0 22 22" fill="none" xmlns="http://www.w3.org/2000/svg">
<path d="M19.0506 2.94949C18.9578 2.85714 18.8406 2.7932 18.7127 2.76519C18.5848 2.73718 18.4516 2.74626 18.3287 2.79137L3.20369 8.29137C3.07325 8.34084 2.96095 8.42883 2.8817 8.54365C2.80245 8.65846 2.76001 8.79467 2.76001 8.93418C2.76001 9.07369 2.80245 9.20989 2.8817 9.32471C2.96095 9.43953 3.07325 9.52751 3.20369 9.57699L9.10932 11.9351L13.4681 7.56262L14.4374 8.53199L10.0581 12.9114L12.4231 18.817C12.474 18.9449 12.5622 19.0546 12.6762 19.1318C12.7902 19.209 12.9247 19.2502 13.0624 19.2501C13.2014 19.2473 13.3362 19.2024 13.4491 19.1214C13.562 19.0404 13.6477 18.9271 13.6949 18.7964L19.1949 3.67137C19.2418 3.54973 19.2531 3.41729 19.2275 3.28948C19.202 3.16167 19.1406 3.04375 19.0506 2.94949Z" fill="#D9E1F4"/>
</svg>
