<svg width="18" height="18" viewBox="0 0 18 18" fill="none" xmlns="http://www.w3.org/2000/svg">
<path d="M14.6475 4.80751C14.8643 5.01243 14.9908 5.29503 14.9992 5.5932C15.0077 5.89136 14.8973 6.18067 14.6925 6.39751L8.31752 13.1475C8.21419 13.2567 8.09003 13.3441 7.95237 13.4045C7.81471 13.4649 7.66633 13.4971 7.51602 13.4992C7.3657 13.5013 7.21648 13.4733 7.07719 13.4167C6.93789 13.3602 6.81134 13.2763 6.70501 13.17L3.33001 9.79501C3.13129 9.58175 3.02311 9.29968 3.02825 9.00823C3.03339 8.71678 3.15146 8.4387 3.35758 8.23258C3.5637 8.02646 3.84178 7.90839 4.13323 7.90325C4.42468 7.89811 4.70675 8.00629 4.92001 8.20501L7.47752 10.761L13.0575 4.85251C13.2624 4.63576 13.545 4.50926 13.8432 4.50082C14.1414 4.49238 14.4307 4.6027 14.6475 4.80751Z" fill="#23B843"/>
</svg>
