<svg width="21" height="31" viewBox="0 0 21 31" fill="none" xmlns="http://www.w3.org/2000/svg">
<g clip-path="url(#clip0_323:33682)">
<path d="M9.75551 31L7.63025 27.5116L4.52075 30.1301L7.72606 10.4564L12.9608 11.3175L9.75551 31Z" fill="#B61A2B"/>
<path d="M5.95776 21.2993C7.35138 21.9056 8.88435 22.2395 10.5044 22.2395C10.7309 22.2395 10.9574 22.2307 11.1838 22.222L12.9607 11.3263L7.72591 10.4564L5.95776 21.2993Z" fill="#B61A2B"/>
<path d="M13.0216 30.8682L14.7462 27.169L18.1258 29.4272L12.8126 10.2192L7.7085 11.6602L13.0216 30.8682Z" fill="#F22E47"/>
<path opacity="0.48" d="M10.6351 22.2396C12.4903 22.222 14.2323 21.7563 15.7827 20.9479L12.8126 10.2192L7.7085 11.6602L10.6351 22.2396Z" fill="#B61A2B"/>
<path d="M20.728 13.0266C22.0611 7.33091 18.565 1.62339 12.919 0.278476C7.27313 -1.06643 1.61547 2.46056 0.282309 8.15624C-1.05085 13.8519 2.44533 19.5594 8.09125 20.9044C13.7372 22.2493 19.3948 18.7223 20.728 13.0266Z" fill="#FF9700"/>
<path d="M10.6735 20.1722C15.9159 20.0778 20.0898 15.714 19.9962 10.4255C19.9026 5.13696 15.577 0.926288 10.3346 1.0207C5.09228 1.11511 0.918397 5.47886 1.01199 10.7674C1.10557 16.0559 5.43119 20.2666 10.6735 20.1722Z" fill="#FFCF03"/>
<path d="M18.0736 10.7112C18.0736 10.6058 18.0824 10.4125 18.0388 9.60408C18.3524 10.4213 19.1189 10.4652 19.1624 10.4916C19.1537 10.4828 19.1711 9.27897 17.9256 9.0593C17.8733 8.79569 17.8123 8.54088 17.734 8.29484C18.152 8.86599 18.8837 8.84841 18.8924 8.84841C18.875 8.83084 18.7356 7.71491 17.4988 7.62704C17.3856 7.35465 17.2636 7.09105 17.1243 6.83623C17.6294 7.43373 18.4046 7.29314 18.4133 7.30193C18.4133 7.30193 18.2391 6.77472 17.7949 6.49354C17.3507 6.21236 16.802 6.30023 16.802 6.30023C16.6365 6.04541 16.4536 5.79938 16.2532 5.56213C16.8455 5.93118 17.5162 5.65 17.5249 5.65C17.5075 5.64122 16.9588 4.63951 15.7655 5.03492C15.5129 4.78889 15.2516 4.56043 14.9729 4.34076C15.6435 4.56043 16.2358 4.12109 16.2445 4.1123C16.2271 4.1123 15.4519 3.27755 14.398 3.94535C14.1628 3.80476 13.9277 3.67296 13.6838 3.54995C14.3196 3.57631 14.7725 3.08424 14.7812 3.07546C14.7551 3.07546 13.8754 2.40766 12.9608 3.24241C12.6211 3.11939 12.2727 3.02273 11.9069 2.94365C12.7082 2.90851 13.0654 2.20556 13.0828 2.18798C13.0741 2.18798 11.9766 1.76622 11.3233 2.847C11.0446 2.81185 10.7659 2.79428 10.4785 2.78549C11.2449 2.60097 11.4366 1.89802 11.4627 1.86287C11.454 1.87166 10.2955 1.61684 9.8252 2.80306C9.64229 2.81185 9.45938 2.83821 9.27647 2.86457C9.70326 2.50431 9.77294 1.91559 9.77294 1.90681C9.74681 1.92438 8.71902 1.90681 8.42288 3.03152C8.12674 3.1106 7.83931 3.20726 7.56059 3.3127C7.94383 2.85579 7.86544 2.22313 7.86544 2.21435C7.83931 2.24071 6.82894 2.46916 6.82023 3.65539C6.55893 3.79598 6.30633 3.94535 6.06245 4.1123C6.33246 3.56752 6.09729 2.96123 6.09729 2.96123C6.07987 2.99637 5.1566 3.45329 5.42661 4.60437C5.27854 4.72738 5.13047 4.85919 4.99111 4.99978C5.07821 4.48135 4.8082 4.00686 4.8082 4.00686C4.79949 4.03322 3.98945 4.63073 4.38141 5.67636C4.22462 5.86967 4.07655 6.07177 3.93719 6.28266C3.92848 5.74666 3.56266 5.33368 3.56266 5.32489C3.56266 5.36004 2.87456 6.10692 3.48427 7.07347C3.35362 7.34586 3.23168 7.62704 3.12715 7.90822C3.03134 7.31072 2.52616 6.97682 2.51745 6.96803C2.52616 7.00318 2.01226 7.91701 2.88327 8.71661C2.81359 9.00658 2.76133 9.30533 2.72649 9.60408C2.50874 9.02415 1.89903 8.79569 1.89032 8.78691C1.90774 8.82205 1.62902 9.83254 2.67423 10.3949C2.67423 10.597 2.67423 10.7991 2.68294 11.01C2.36067 10.5706 1.81193 10.4564 1.80322 10.4564C1.82064 10.4828 1.71612 11.5108 2.78746 11.9062C2.8223 12.1171 2.87456 12.3368 2.92682 12.5389C2.54358 12.0029 1.8729 11.9677 1.85548 11.959C1.86419 11.9765 1.93387 13.11 3.16199 13.277C3.26652 13.5494 3.38846 13.8218 3.51911 14.0854C2.98779 13.5406 2.2997 13.7163 2.26486 13.6988C2.28228 13.7075 2.60455 14.8147 3.8588 14.6741C4.17236 15.1749 4.39012 15.4034 4.51206 15.5791C3.81525 15.0607 3.13586 15.4386 3.09231 15.4386C3.10102 15.4386 3.72815 16.4578 4.8953 15.9833C5.08692 16.1766 5.29596 16.37 5.50501 16.5457C4.79078 16.2469 4.23333 16.6775 4.18978 16.6863C4.21591 16.6863 4.93885 17.5825 6.03632 16.9499C6.24536 17.0993 6.46311 17.2311 6.68958 17.3541C6.74184 17.398 6.7941 17.442 6.85507 17.4771C6.0189 17.2574 5.53114 17.8637 5.47888 17.8813C5.47888 17.8813 5.9318 18.1976 6.4544 18.1449C6.97701 18.0922 7.36025 17.6968 7.36025 17.6792C7.62155 17.7934 7.88286 17.8901 8.15287 17.9692C8.23997 18.0219 8.32707 18.057 8.41417 18.0922C7.55187 18.0746 7.21218 18.7776 7.16863 18.8039C7.16863 18.8039 7.68253 19.006 8.179 18.8303C8.67547 18.6633 8.9542 18.1713 8.9542 18.1625C9.25034 18.2152 9.54648 18.2503 9.84262 18.2767C9.91231 18.2943 9.98199 18.3031 10.043 18.3118C9.19808 18.5052 9.05001 19.2696 9.01517 19.3136C9.02388 19.3048 10.1823 19.4893 10.5917 18.2943C10.8356 18.2855 11.0795 18.2679 11.3146 18.2328C10.7485 18.5755 10.6701 19.2696 10.6614 19.2784C10.6875 19.2608 11.7588 19.3048 12.0463 18.101C12.4818 18.0043 12.8999 17.8637 13.3005 17.6968C12.7953 18.1625 12.8824 18.883 12.8737 18.8918C12.8912 18.8742 13.9799 18.637 13.9538 17.3892C14.5635 17.0641 14.8683 16.8005 14.9293 16.7654C14.3632 17.4244 14.6767 18.1361 14.6767 18.1888C14.6767 18.18 15.7393 17.6353 15.3648 16.4227C15.7306 16.1064 15.87 15.9394 16.1574 15.6494C15.7655 16.4227 16.2445 17.0378 16.2532 17.0905C16.2532 17.0729 17.1504 16.3084 16.4971 15.2101C16.6539 15.008 16.7933 14.7883 16.9239 14.5687C16.7933 15.254 17.2897 15.7812 17.2897 15.79C17.2897 15.7725 18.0214 14.9201 17.2636 13.936C17.403 13.646 17.5249 13.3473 17.6294 13.0397C17.6033 13.8218 18.2043 14.1996 18.2304 14.2348C18.2304 14.2172 18.7879 13.2067 17.8211 12.4071C17.9604 11.8359 17.943 11.6866 18.0301 11.2736C18.1346 12.1347 18.875 12.3719 18.9098 12.4159C18.9098 12.4159 19.0318 11.8711 18.7966 11.4054C18.5875 10.9309 18.0736 10.7112 18.0736 10.7112ZM17.9517 10.7639C16.8629 11.2912 17.1242 12.3016 17.1068 12.3456C17.1068 12.3456 17.5859 12.1786 17.8559 11.7744C17.8211 11.9853 17.7775 12.1962 17.7252 12.3983C16.532 12.6268 16.5058 13.7251 16.4971 13.7427C16.5058 13.7427 17.0981 13.6812 17.4552 13.2682C17.3768 13.4791 17.2897 13.69 17.1852 13.8833C15.9484 13.8393 15.7045 14.9377 15.6871 14.9465C15.6958 14.9465 16.3142 15.0168 16.7671 14.6389C16.6539 14.8235 16.532 14.9992 16.4013 15.1662C15.208 14.9728 14.8335 15.9745 14.7987 15.9921C14.7987 15.9921 15.269 16.1239 15.7132 15.957C15.5739 16.0976 15.4345 16.2294 15.2864 16.3612C14.1802 15.8867 13.5792 16.7566 13.5444 16.7742C13.5444 16.7742 14.006 17.0378 14.5112 16.9499C14.3283 17.0729 14.1367 17.1871 13.9451 17.2926C12.987 16.5281 12.1334 17.2486 12.116 17.2486C12.1247 17.2486 12.5863 17.6968 13.1873 17.6528C12.8389 17.7934 12.4731 17.9077 12.0985 17.9955C12.0289 17.8989 11.7414 17.5386 11.3059 17.4156C10.8007 17.2662 10.2955 17.4947 10.2955 17.4947C10.313 17.5035 10.6527 18.057 11.2885 18.1361C11.062 18.1625 10.8269 18.18 10.5917 18.1888C9.98199 17.152 8.9542 17.4947 8.93678 17.4859C8.93678 17.4859 9.1284 17.8989 9.51164 18.1449C9.32873 18.1273 9.14582 18.0922 8.96291 18.057C8.58837 16.9235 7.578 17.0378 7.54316 17.0114C7.54316 17.0114 7.63026 17.4507 7.93512 17.7759C7.75221 17.7143 7.578 17.644 7.4038 17.565C7.30799 16.3612 6.29762 16.2382 6.26278 16.203C6.26278 16.203 6.23665 16.6863 6.48924 17.0905C6.3673 17.0114 6.24536 16.9323 6.12342 16.8532C6.33246 15.6494 5.3308 15.2452 5.32209 15.2189C5.32209 15.2277 5.1566 15.8076 5.42661 16.2997C5.27854 16.1679 5.13047 16.0273 4.99111 15.8867C5.37435 14.7356 4.4598 14.1996 4.44238 14.1645C4.44238 14.1645 4.23333 14.6302 4.33786 15.1134C4.21591 14.9465 4.10268 14.7795 3.99816 14.6126C4.66884 13.5933 3.90235 12.8113 3.90235 12.7849C3.90235 12.7937 3.51911 13.2594 3.57137 13.8306C3.48427 13.6372 3.39717 13.4439 3.32749 13.2506C4.23333 12.4071 3.65847 11.4757 3.66718 11.4405C3.66718 11.4493 3.11844 11.8447 3.09231 12.5037C3.04876 12.328 3.00521 12.1435 2.97037 11.959C2.9965 11.9677 3.49298 11.6954 3.67589 11.2033C3.8588 10.7112 3.66718 10.184 3.66718 10.184C3.65847 10.2016 2.93553 10.5794 2.92682 11.423C2.9094 11.379 2.89198 11.3263 2.87456 11.2736C2.84843 11.01 2.83972 10.7376 2.83972 10.474C2.84843 10.474 3.36233 10.2807 3.62363 9.82376C3.87622 9.36684 3.7717 8.81327 3.7717 8.81327C3.75428 8.83084 3.05747 9.06809 2.87456 9.77982C2.9094 9.45471 2.96166 9.12959 3.03134 8.81327C3.04005 8.82205 3.58879 8.75176 3.9459 8.37393C4.30301 7.9873 4.33786 7.43373 4.33786 7.43373C4.32044 7.44252 3.5104 7.50403 3.17941 8.27727C3.18813 8.22455 3.37104 7.67976 3.60621 7.19649C3.63234 7.22285 4.18978 7.31072 4.62529 7.02075C5.06079 6.73078 5.22628 6.20357 5.22628 6.20357C5.20886 6.21236 4.39883 6.08056 3.90235 6.74836C3.91977 6.69564 3.93719 6.63413 3.95461 6.57262C4.11139 6.30902 4.28559 6.06298 4.47722 5.81695C4.50335 5.86967 5.04337 6.07177 5.52243 5.87846C6.01019 5.68515 6.27149 5.19309 6.27149 5.19309C6.25407 5.19309 5.48759 4.90312 4.86917 5.46548C4.90401 5.40397 4.93885 5.33368 4.96498 5.25459C5.13918 5.07886 5.31338 4.90312 5.50501 4.74496C5.51372 4.76253 6.00148 5.02614 6.51538 4.91191C7.02056 4.79768 7.36025 4.35834 7.36025 4.35834C7.32541 4.35834 6.66345 3.95414 5.96664 4.37591C6.25407 4.16503 6.55022 3.9805 6.86378 3.81355C6.86378 3.82234 7.28186 4.19139 7.79576 4.20896C8.31836 4.22653 8.75387 3.87506 8.75387 3.87506C8.71903 3.86627 8.179 3.3127 7.39509 3.54995C7.72608 3.40057 8.07448 3.27755 8.43159 3.1809C8.43159 3.20726 8.74515 3.67296 9.24163 3.81355C9.74681 3.95414 10.2433 3.7169 10.2433 3.7169C10.2259 3.70811 9.79036 3.01395 8.9542 3.08424C8.98904 3.06667 9.01517 3.05788 9.05001 3.04031C9.32873 2.98759 9.60745 2.95244 9.90359 2.93487C10.4698 4.00686 11.4801 3.7169 11.515 3.72568C11.5062 3.7169 11.2885 3.16332 10.7833 2.92608C10.9836 2.93487 11.1753 2.95244 11.3669 2.9788C11.7501 4.12109 12.8215 4.01565 12.8389 4.02444C12.8389 4.02444 12.717 3.47965 12.3076 3.16332C12.5166 3.21605 12.7257 3.28634 12.9347 3.35664C12.987 4.60437 14.1019 4.77132 14.1106 4.78889C14.1019 4.76253 14.1454 4.08594 13.6315 3.6466C13.8841 3.76962 14.1367 3.90142 14.3719 4.0508C14.2151 5.28095 15.2516 5.63243 15.2603 5.65879C15.2603 5.65 15.3997 5.0525 15.0861 4.56043C15.3038 4.73617 15.5129 4.92069 15.7132 5.12279C15.269 6.26508 16.1836 6.87137 16.1923 6.88895C16.1923 6.88016 16.4797 6.3178 16.2794 5.75544C16.4449 5.95754 16.5929 6.17721 16.741 6.39688C16.079 7.41616 16.8194 8.13668 16.8281 8.1894C16.8281 8.18061 17.2114 7.7237 17.1765 7.17013C17.2549 7.32829 17.3246 7.49524 17.3943 7.66219C16.5494 8.55845 17.1852 9.48107 17.1852 9.49864C17.1852 9.48985 17.6469 9.08566 17.673 8.49694C17.7252 8.69904 17.7775 8.90114 17.8123 9.11202C16.8804 9.87648 17.3681 10.8167 17.3594 10.8606C17.3594 10.8606 17.7514 10.6058 17.9343 10.1752C17.9517 10.3861 17.9517 10.5794 17.9517 10.7639Z" fill="#FF9700"/>
<path d="M13.5965 15.2453L10.1735 13.8394L6.75913 15.2716L7.02044 11.546L4.61646 8.71662L8.20501 7.82036L10.1299 4.63074L12.0897 7.80279L15.687 8.6639L13.3004 11.5196L13.5965 15.2453Z" fill="#FFB600"/>
<path d="M10.1299 4.63074L10.1473 9.95557L12.0897 7.80279L10.1299 4.63074Z" fill="#FF7300"/>
<path d="M15.6868 8.66388L10.1472 9.95555L13.3003 11.5196L15.6868 8.66388Z" fill="#FF7300"/>
<path d="M13.5964 15.2452L10.1472 9.95557L10.1733 13.8394L13.5964 15.2452Z" fill="#FF7300"/>
<path d="M6.75903 15.2716L10.1473 9.95557L7.02034 11.546L6.75903 15.2716Z" fill="#FF7300"/>
<path d="M4.61646 8.71657L8.20501 7.82031L10.1474 9.95551L4.61646 8.71657Z" fill="#FF7300"/>
</g>
<defs>
<clipPath id="clip0_323:33682">
<rect width="21" height="31" fill="white"/>
</clipPath>
</defs>
</svg>
