<svg width="21" height="21" viewBox="0 0 21 21" fill="none" xmlns="http://www.w3.org/2000/svg">
<path d="M2.625 5.03125C2.625 4.39307 2.87851 3.78103 3.32977 3.32977C3.78103 2.87852 4.39307 2.625 5.03125 2.625H13.7498C14.1233 2.62491 14.4933 2.69843 14.8384 2.84136C15.1836 2.98429 15.4972 3.19382 15.7614 3.458L17.542 5.23863C18.0758 5.77238 18.375 6.496 18.375 7.25025V15.9688C18.375 16.6069 18.1215 17.219 17.6702 17.6702C17.219 18.1215 16.6069 18.375 15.9688 18.375H5.03125C4.39307 18.375 3.78103 18.1215 3.32977 17.6702C2.87851 17.219 2.625 16.6069 2.625 15.9688V5.03125ZM5.03125 3.9375C4.4275 3.9375 3.9375 4.4275 3.9375 5.03125V15.9688C3.9375 16.5725 4.4275 17.0625 5.03125 17.0625H5.25V12.4688C5.25 11.9466 5.45742 11.4458 5.82663 11.0766C6.19585 10.7074 6.69661 10.5 7.21875 10.5H13.7812C14.3034 10.5 14.8042 10.7074 15.1734 11.0766C15.5426 11.4458 15.75 11.9466 15.75 12.4688V17.0625H15.9688C16.5725 17.0625 17.0625 16.5725 17.0625 15.9688V7.25025C17.0625 6.84338 16.9015 6.454 16.6136 6.167L14.833 4.38637C14.6069 4.15994 14.3156 4.01 14 3.95762V6.34375C14 6.60229 13.9491 6.8583 13.8501 7.09716C13.7512 7.33602 13.6062 7.55305 13.4234 7.73587C13.2406 7.91868 13.0235 8.0637 12.7847 8.16264C12.5458 8.26158 12.2898 8.3125 12.0312 8.3125H8.09375C7.57161 8.3125 7.07085 8.10508 6.70163 7.73587C6.33242 7.36665 6.125 6.86589 6.125 6.34375V3.9375H5.03125ZM14.4375 17.0625V12.4688C14.4375 12.2947 14.3684 12.1278 14.2453 12.0047C14.1222 11.8816 13.9553 11.8125 13.7812 11.8125H7.21875C7.0447 11.8125 6.87778 11.8816 6.75471 12.0047C6.63164 12.1278 6.5625 12.2947 6.5625 12.4688V17.0625H14.4375ZM7.4375 3.9375V6.34375C7.4375 6.706 7.7315 7 8.09375 7H12.0312C12.2053 7 12.3722 6.93086 12.4953 6.80779C12.6184 6.68472 12.6875 6.5178 12.6875 6.34375V3.9375H7.4375Z" fill="white"/>
</svg>
