<svg width="50" height="50" viewBox="0 0 50 50" fill="none" xmlns="http://www.w3.org/2000/svg">
<path d="M41.7169 18.9542C45.0478 22.285 45.0478 27.6898 41.7169 31.0332L42.8356 32.1518L50 24.9874L42.8356 17.823L41.7169 18.9542Z" fill="#918724"/>
<path d="M32.1518 42.8356L31.0332 41.7169C27.7024 45.0477 22.2976 45.0477 18.9543 41.7169L17.8356 42.8356L25 50L32.1518 42.8356Z" fill="#918724"/>
<path d="M18.9543 8.28306C22.2851 4.95224 27.6898 4.95224 31.0332 8.28306L32.1518 7.1644L24.9874 0L17.823 7.1644L18.9543 8.28306Z" fill="#918724"/>
<path d="M8.28306 31.0332C4.95224 27.7023 4.95224 22.2976 8.28306 18.9542L7.1644 17.8356L0 25L7.1644 32.1644L8.28306 31.0332Z" fill="#918724"/>
<path d="M19.9472 36.8024C21.0533 35.8848 22.1342 34.9422 23.1775 33.9869C23.7934 33.4339 24.3967 32.8557 24.9874 32.2775C25.3771 32.6671 26.4706 33.6852 26.7974 33.9869C27.8532 34.9547 28.9216 35.8974 30.0276 36.8024C31.1337 37.7199 32.265 38.5998 33.4339 39.4545C34.6028 40.2966 35.7969 41.1262 37.0915 41.8552C36.3625 40.5606 35.5329 39.3665 34.6908 38.1976C33.8361 37.0286 32.9563 35.8974 32.0387 34.7913C31.1212 33.6852 30.1785 32.6043 29.2107 31.5611C28.2051 30.4424 27.0865 29.3238 24.9749 27.1619C23.7682 28.3811 22.2474 29.8894 20.7265 31.5611C19.7587 32.6169 18.816 33.6852 17.911 34.7913C16.9935 35.8974 16.1136 37.0286 15.2589 38.1976C14.4168 39.3665 13.5872 40.5606 12.8582 41.8552C14.1403 41.1262 15.3343 40.2966 16.5158 39.4545C17.7099 38.6123 18.8411 37.7199 19.9472 36.8024ZM28.5571 32.1895C29.6757 33.4213 30.5556 34.4394 31.3474 35.3946C32.3027 36.551 33.1197 37.6068 33.8487 38.6123C32.8431 37.8708 31.7873 37.0538 30.631 36.1111C29.6757 35.3318 28.6576 34.4394 27.4384 33.3207C26.1941 32.2021 25.1257 31.1211 25 31.008L24.3464 31.6365C23.6551 32.3026 23.0895 32.8431 22.549 33.3333C21.4052 34.3765 20.362 35.2815 19.3439 36.1237C18.2001 37.0663 17.1569 37.8833 16.1513 38.6123C16.8803 37.6068 17.6973 36.5636 18.64 35.4198C19.4821 34.4017 20.3871 33.3584 21.4304 32.2147C22.7124 30.8069 23.8311 29.6883 24.9874 28.5193C26.6591 30.191 27.187 30.7064 28.5571 32.1895Z" fill="#918724"/>
<path d="M7.47863 27.8909L8.30819 27.4761C8.04424 26.9482 7.74258 26.081 7.73002 24.9875C7.73002 23.9065 8.04424 23.0392 8.30819 22.5113L7.47863 22.0966C7.17697 22.7124 6.81247 23.718 6.81247 24.9875H6.86275H6.81247C6.81247 26.2695 7.17697 27.275 7.47863 27.8909Z" fill="#918724"/>
<path d="M43.1875 24.9875C43.1875 23.718 42.823 22.725 42.5214 22.0966L41.6918 22.5113C41.9558 23.0392 42.2574 23.8939 42.27 25C42.27 26.081 41.9558 26.9482 41.6918 27.4761L42.5214 27.8909C42.823 27.275 43.1875 26.2695 43.1875 24.9875H43.1247H43.1875Z" fill="#918724"/>
<path d="M27.8909 7.4786C27.275 7.17694 26.2695 6.81244 25 6.81244V6.86272V6.81244C23.7305 6.81244 22.7376 7.17694 22.1091 7.4786L22.5239 8.30816C23.0518 8.04421 23.9191 7.74255 25.0126 7.72998C26.0935 7.72998 26.9608 8.04421 27.4887 8.30816L27.8909 7.4786Z" fill="#918724"/>
<path d="M22.1091 42.5213C22.725 42.823 23.718 43.1875 24.9874 43.1875H25.0126C26.2821 43.1875 27.275 42.823 27.9035 42.5213L27.4887 41.6918C26.9608 41.9557 26.1061 42.2574 25 42.27C23.9065 42.27 23.0518 41.9557 22.5239 41.6918L22.1091 42.5213Z" fill="#918724"/>
<path d="M25.2514 36.1111C25.2765 36.0985 25.3016 36.0734 25.3142 36.0483C25.3394 36.0231 25.3519 36.0106 25.3771 35.9729C25.3896 35.9477 25.4022 35.9226 25.4148 35.8974C25.4273 35.8723 25.4399 35.8472 25.4399 35.8094C25.465 35.6586 25.4148 35.4952 25.3142 35.3947C25.3016 35.3695 25.2765 35.357 25.2514 35.3318C25.2262 35.3193 25.2011 35.3067 25.176 35.2941C25.1508 35.2815 25.1131 35.2815 25.088 35.269C25.0628 35.2564 25.0251 35.2564 25 35.2564C24.9371 35.2564 24.8743 35.269 24.824 35.2941C24.7738 35.3193 24.7235 35.357 24.6732 35.3947C24.6355 35.4324 24.5978 35.4827 24.5726 35.5455C24.5475 35.5958 24.5349 35.6586 24.5349 35.7215C24.5349 35.8472 24.5852 35.9603 24.6732 36.0483C24.7612 36.1362 24.8743 36.1865 25 36.1865C25.0251 36.1865 25.0628 36.1865 25.088 36.174C25.1131 36.174 25.1508 36.1614 25.176 36.1488C25.2011 36.1488 25.2262 36.1237 25.2514 36.1111Z" fill="#918724"/>
<path d="M25 37.0663C24.7486 37.0663 24.5349 37.28 24.5349 37.5314C24.5349 37.7828 24.7486 37.9965 25 37.9965C25.2514 37.9965 25.465 37.7828 25.465 37.5314C25.465 37.28 25.2514 37.0663 25 37.0663Z" fill="#918724"/>
<path d="M25.2514 39.731C25.2765 39.7185 25.3017 39.6933 25.3142 39.6808C25.3394 39.6556 25.3519 39.6305 25.3771 39.6054C25.3896 39.5802 25.4022 39.5551 25.4148 39.5299C25.4273 39.5048 25.4399 39.4671 25.4399 39.442C25.4525 39.3791 25.4525 39.3163 25.4399 39.2534C25.4273 39.2283 25.4273 39.1906 25.4148 39.1654C25.4022 39.1403 25.3896 39.1152 25.3771 39.09C25.3645 39.0649 25.3394 39.0397 25.3142 39.0272C25.3017 39.002 25.2765 38.9895 25.2514 38.9643C25.2262 38.9392 25.2011 38.9392 25.176 38.9266C25.1508 38.9141 25.1131 38.9015 25.088 38.9015C25.0628 38.9015 25.0251 38.9015 25 38.9015C24.9372 38.9015 24.8743 38.9141 24.824 38.9392C24.7738 38.9643 24.7235 38.9895 24.6732 39.0397C24.6355 39.0775 24.5978 39.1277 24.5727 39.1906C24.5475 39.2409 24.5349 39.3037 24.5349 39.3665C24.5349 39.4294 24.5475 39.4922 24.5727 39.5425C24.5978 39.5928 24.6229 39.6431 24.6732 39.6933C24.7612 39.7813 24.8743 39.8316 25 39.8316C25.0251 39.8316 25.0628 39.8316 25.088 39.8316C25.1131 39.8316 25.1508 39.819 25.176 39.8065C25.2011 39.7688 25.2262 39.7562 25.2514 39.731Z" fill="#918724"/>
<path d="M24.5727 10.4701C24.5475 10.5203 24.5349 10.5832 24.5349 10.646C24.5349 10.7089 24.5475 10.7717 24.5727 10.822C24.5978 10.8723 24.6355 10.9225 24.6732 10.9728C24.7109 11.0105 24.7612 11.0482 24.824 11.0734C24.8743 11.0985 24.9372 11.1111 25 11.1111C25.1257 11.1111 25.2388 11.0608 25.3268 10.9728C25.5028 10.7969 25.5028 10.4952 25.3268 10.3192C25.2388 10.2312 25.1257 10.181 25 10.181C24.9372 10.181 24.8743 10.1935 24.824 10.2187C24.7738 10.2438 24.7235 10.269 24.6732 10.3192C24.6229 10.3569 24.5852 10.4198 24.5727 10.4701Z" fill="#918724"/>
<path d="M25 12.9211C25.2514 12.9211 25.465 12.7074 25.465 12.456C25.465 12.2046 25.2514 11.991 25 11.991C24.7486 11.991 24.5349 12.2046 24.5349 12.456C24.5349 12.72 24.736 12.9211 25 12.9211Z" fill="#918724"/>
<path d="M24.6606 14.5928C24.7109 14.6305 24.7612 14.6682 24.8115 14.6933C24.8617 14.7185 24.9246 14.731 24.9874 14.731C25.1131 14.731 25.2388 14.6807 25.3142 14.5928C25.4902 14.4168 25.4902 14.1026 25.3142 13.9392C25.2262 13.8512 25.1131 13.8009 24.9874 13.8009C24.8617 13.8009 24.7486 13.8512 24.6606 13.9392C24.5726 14.0271 24.5224 14.1403 24.5224 14.266C24.5349 14.3917 24.5852 14.5048 24.6606 14.5928Z" fill="#918724"/>
<path d="M16.541 10.5329C15.3721 9.69077 14.178 8.86121 12.8834 8.1322C13.6124 9.41425 14.4419 10.6083 15.2841 11.7898C16.1388 12.9587 17.0186 14.09 17.9362 15.1961C18.8537 16.3021 19.7964 17.3831 20.7516 18.4263C22.2725 20.098 23.7934 21.6063 25 22.8255C27.1116 20.6762 28.2303 19.545 29.2358 18.4263C30.2036 17.3705 31.1463 16.3021 32.0639 15.1961C32.9688 14.09 33.8612 12.9587 34.7159 11.7898C35.5581 10.6209 36.3876 9.42682 37.1166 8.1322C35.822 8.86121 34.628 9.69077 33.459 10.5329C32.2901 11.3876 31.1589 12.2674 30.0528 13.185C28.9467 14.09 27.8658 15.0452 26.8225 16.0005C26.4832 16.3021 25.4022 17.3202 25.0126 17.7099C24.4093 17.1317 23.8059 16.5661 23.2026 16.0005C22.1468 15.0327 21.0784 14.09 19.9724 13.185C18.8411 12.28 17.7099 11.3876 16.541 10.5329ZM25 21.5058C23.8436 20.3368 22.725 19.2056 21.4429 17.8104C20.3997 16.6666 19.4947 15.6234 18.6526 14.6053C17.7099 13.4615 16.8929 12.4183 16.1639 11.4127C17.1569 12.1418 18.2127 12.9587 19.3565 13.9014C20.3746 14.7436 21.4178 15.6485 22.5616 16.6918C23.0895 17.182 23.6677 17.7099 24.359 18.3886L25.0126 19.0171C25.1383 18.8914 26.2066 17.823 27.451 16.7043C28.6828 15.5857 29.6883 14.6933 30.6435 13.914C31.7999 12.9587 32.8431 12.1418 33.8612 11.4127C33.1322 12.4183 32.3027 13.4741 31.36 14.6304C30.5807 15.5857 29.6883 16.6038 28.5696 17.8356C27.187 19.281 26.6591 19.8089 25 21.5058Z" fill="#918724"/>
<path d="M36.8024 30.0528C35.8849 28.9467 34.9422 27.8658 33.9869 26.8225C33.4339 26.2066 32.8557 25.6033 32.2775 25.0126C32.6672 24.6229 33.6853 23.5294 33.9869 23.2026C34.9548 22.1468 35.8974 21.0784 36.8024 19.9724C37.72 18.8663 38.5998 17.7351 39.4545 16.5661C40.2966 15.3972 41.1262 14.2031 41.8552 12.9085C40.5606 13.6375 39.3665 14.4671 38.1976 15.3092C37.0287 16.1639 35.8974 17.0438 34.7914 17.9613C33.6853 18.8788 32.6043 19.8215 31.5611 20.7894C30.4424 21.7949 29.3238 22.9135 27.1619 25.0252C28.3811 26.2318 29.8894 27.7527 31.5611 29.2735C32.6169 30.2413 33.6853 31.184 34.7914 32.089C35.8974 33.0066 37.0287 33.8864 38.1976 34.7411C39.3665 35.5832 40.5606 36.4128 41.8552 37.1418C41.1262 35.8597 40.2966 34.6657 39.4545 33.4842C38.6124 32.2901 37.72 31.1589 36.8024 30.0528ZM32.1895 21.443C33.4213 20.3243 34.4394 19.4445 35.3947 18.6526C36.551 17.6973 37.6068 16.8804 38.6124 16.1513C37.8708 17.1569 37.0538 18.2127 36.1111 19.369C35.3318 20.3243 34.4394 21.3424 33.3208 22.5616C32.2021 23.8059 31.1212 24.8743 31.008 25L31.6365 25.6536C32.3027 26.3449 32.8431 26.9105 33.3333 27.451C34.3766 28.5948 35.2816 29.638 36.1237 30.6561C37.0664 31.7999 37.8834 32.8432 38.6124 33.8487C37.6068 33.1197 36.5636 32.3027 35.4198 31.36C34.4017 30.5179 33.3585 29.6129 32.2147 28.5696C30.8069 27.2876 29.6883 26.1689 28.5194 25.0126C30.1911 23.3283 30.719 22.8004 32.1895 21.443Z" fill="#918724"/>
<path d="M10.5329 33.459C9.69081 34.628 8.86124 35.822 8.13223 37.1166C9.41428 36.3876 10.6084 35.5581 11.7899 34.7159C12.9588 33.8612 14.09 32.9814 15.1961 32.0639C16.3022 31.1463 17.3831 30.2036 18.4264 29.2484C20.098 27.7275 21.6063 26.2066 22.8256 25C20.6762 22.8884 19.545 21.7697 18.4264 20.7642C17.3705 19.7964 16.3022 18.8537 15.1961 17.9362C14.09 17.0312 12.9588 16.1388 11.7899 15.2841C10.6209 14.4419 9.42685 13.6124 8.13223 12.8834C8.86124 14.178 9.69081 15.372 10.5329 16.541C11.3876 17.7099 12.2675 18.8411 13.185 19.9472C14.09 21.0533 15.0453 22.1342 16.0005 23.1775C16.3022 23.5168 17.3203 24.5978 17.7099 24.9874C17.1317 25.5908 16.5661 26.1941 16.0005 26.7974C15.0327 27.8532 14.09 28.9216 13.185 30.0277C12.28 31.1589 11.3876 32.2901 10.5329 33.459ZM21.5058 25C20.3369 26.1564 19.2056 27.275 17.8105 28.5571C16.6667 29.6003 15.6234 30.5053 14.6053 31.3474C13.4615 32.2901 12.4183 33.1071 11.4128 33.8361C12.1418 32.8431 12.9588 31.7873 13.9015 30.6435C14.7436 29.6254 15.6486 28.5822 16.6918 27.4384C17.182 26.9105 17.7099 26.3323 18.3886 25.641L19.0171 24.9874C18.8914 24.8617 17.823 23.7934 16.7044 22.549C15.5857 21.3172 14.6933 20.3117 13.914 19.3565C12.9588 18.2001 12.1418 17.1569 11.4128 16.1388C12.4183 16.8678 13.4741 17.6973 14.6305 18.64C15.5857 19.4193 16.6038 20.3117 17.8356 21.4304C19.2811 22.8004 19.809 23.3283 21.5058 25Z" fill="#918724"/>
</svg>
