<svg width="85" height="85" viewBox="0 0 85 85" fill="none" xmlns="http://www.w3.org/2000/svg">
<path d="M70.9187 32.2222C76.5811 37.8846 76.5811 47.0726 70.9187 52.7564L72.8204 54.6581L84.9999 42.4786L72.8204 30.2991L70.9187 32.2222Z" fill="#F14914"/>
<path d="M54.6582 72.8205L52.7565 70.9188C47.0941 76.5812 37.906 76.5812 32.2223 70.9188L30.3206 72.8205L42.5 85L54.6582 72.8205Z" fill="#F14914"/>
<path d="M32.2221 14.0812C37.8845 8.4188 47.0726 8.4188 52.7563 14.0812L54.6581 12.1795L42.4786 0L30.2991 12.1795L32.2221 14.0812Z" fill="#F14914"/>
<path d="M14.0812 52.7564C8.4188 47.094 8.4188 37.906 14.0812 32.2222L12.1795 30.3205L0 42.5L12.1795 54.6795L14.0812 52.7564Z" fill="#F14914"/>
<path d="M33.9102 62.5641C35.7905 61.0043 37.6281 59.4017 39.4016 57.7778C40.4486 56.8376 41.4743 55.8547 42.4785 54.8718C43.1409 55.5342 44.9999 57.2649 45.5555 57.7778C47.3503 59.4231 49.1666 61.0256 51.0469 62.5641C52.9273 64.1239 54.8503 65.6196 56.8375 67.0726C58.8247 68.5043 60.8546 69.9145 63.0555 71.1538C61.8162 68.953 60.4059 66.9231 58.9743 64.9359C57.5213 62.9487 56.0256 61.0256 54.4657 59.1453C52.9059 57.2649 51.3033 55.4273 49.658 53.6538C47.9486 51.7521 46.0469 49.8504 42.4572 46.1752C40.4059 48.2479 37.8204 50.812 35.235 53.6538C33.5897 55.4487 31.9871 57.2649 30.4486 59.1453C28.8888 61.0256 27.3931 62.9487 25.9401 64.9359C24.5085 66.9231 23.0982 68.953 21.8589 71.1538C24.0384 69.9145 26.0683 68.5043 28.0768 67.0726C30.1068 65.641 32.0298 64.1239 33.9102 62.5641ZM48.5469 54.7222C50.4486 56.8162 51.9444 58.547 53.2905 60.1709C54.9145 62.1367 56.3033 63.9316 57.5427 65.641C55.8333 64.3803 54.0384 62.9914 52.0726 61.3889C50.4486 60.0641 48.7179 58.547 46.6452 56.6453C44.5298 54.7436 42.7136 52.906 42.4999 52.7137L41.3888 53.782C40.2136 54.9145 39.2521 55.8333 38.3332 56.6667C36.3888 58.4402 34.6153 59.9786 32.8845 61.4102C30.9401 63.0128 29.1666 64.4017 27.4572 65.641C28.6965 63.9316 30.0854 62.1581 31.6879 60.2137C33.1196 58.4829 34.658 56.7094 36.4315 54.7649C38.611 52.3718 40.5127 50.4701 42.4785 48.4829C45.3204 51.3248 46.2179 52.2008 48.5469 54.7222Z" fill="#F14914"/>
<path d="M12.7138 47.4145L14.124 46.7094C13.6753 45.812 13.1625 44.3376 13.1411 42.4786C13.1411 40.641 13.6753 39.1667 14.124 38.2692L12.7138 37.5641C12.201 38.6111 11.5813 40.3205 11.5813 42.4786H11.6668H11.5813C11.5813 44.6581 12.201 46.3675 12.7138 47.4145Z" fill="#F14914"/>
<path d="M73.4187 42.4786C73.4187 40.3205 72.7991 38.6325 72.2862 37.5641L70.876 38.2692C71.3247 39.1667 71.8375 40.6197 71.8589 42.5C71.8589 44.3376 71.3247 45.812 70.876 46.7094L72.2862 47.4145C72.7991 46.3675 73.4187 44.6581 73.4187 42.4786H73.3119H73.4187Z" fill="#F14914"/>
<path d="M47.4145 12.7137C46.3675 12.2009 44.6581 11.5812 42.5 11.5812V11.6667V11.5812C40.3419 11.5812 38.6538 12.2009 37.5854 12.7137L38.2906 14.1239C39.188 13.6752 40.6624 13.1624 42.5213 13.141C44.359 13.141 45.8333 13.6752 46.7308 14.1239L47.4145 12.7137Z" fill="#F14914"/>
<path d="M37.5854 72.2863C38.6325 72.7991 40.3205 73.4188 42.4786 73.4188H42.5213C44.6795 73.4188 46.3675 72.7991 47.4359 72.2863L46.7308 70.8761C45.8333 71.3248 44.3803 71.8376 42.5 71.859C40.641 71.859 39.188 71.3248 38.2906 70.8761L37.5854 72.2863Z" fill="#F14914"/>
<path d="M42.9274 61.3889C42.9701 61.3675 43.0129 61.3248 43.0342 61.2821C43.077 61.2393 43.0983 61.218 43.1411 61.1539C43.1624 61.1111 43.1838 61.0684 43.2052 61.0257C43.2265 60.9829 43.2479 60.9402 43.2479 60.8761C43.2906 60.6197 43.2052 60.3419 43.0342 60.171C43.0129 60.1282 42.9701 60.1069 42.9274 60.0641C42.8847 60.0428 42.8419 60.0214 42.7992 60C42.7565 59.9786 42.6924 59.9786 42.6496 59.9573C42.6069 59.9359 42.5428 59.9359 42.5001 59.9359C42.3932 59.9359 42.2864 59.9573 42.2009 60C42.1155 60.0427 42.03 60.1069 41.9445 60.171C41.8804 60.2351 41.8163 60.3205 41.7736 60.4274C41.7308 60.5128 41.7095 60.6197 41.7095 60.7265C41.7095 60.9402 41.7949 61.1325 41.9445 61.2821C42.0941 61.4316 42.2864 61.5171 42.5001 61.5171C42.5428 61.5171 42.6069 61.5171 42.6496 61.4957C42.6924 61.4957 42.7565 61.4744 42.7992 61.453C42.8419 61.453 42.8847 61.4103 42.9274 61.3889Z" fill="#F14914"/>
<path d="M42.5001 63.0128C42.0727 63.0128 41.7095 63.3761 41.7095 63.8034C41.7095 64.2308 42.0727 64.594 42.5001 64.594C42.9274 64.594 43.2907 64.2308 43.2907 63.8034C43.2907 63.3761 42.9274 63.0128 42.5001 63.0128Z" fill="#F14914"/>
<path d="M42.9274 67.5427C42.9702 67.5214 43.0129 67.4786 43.0343 67.4573C43.077 67.4145 43.0984 67.3718 43.1411 67.3291C43.1625 67.2863 43.1838 67.2436 43.2052 67.2009C43.2266 67.1581 43.2479 67.094 43.2479 67.0513C43.2693 66.9444 43.2693 66.8376 43.2479 66.7308C43.2266 66.688 43.2266 66.6239 43.2052 66.5812C43.1838 66.5385 43.1625 66.4957 43.1411 66.453C43.1197 66.4103 43.077 66.3675 43.0343 66.3462C43.0129 66.3034 42.9702 66.282 42.9274 66.2393C42.8847 66.1966 42.842 66.1966 42.7992 66.1752C42.7565 66.1538 42.6924 66.1325 42.6496 66.1325C42.6069 66.1325 42.5428 66.1325 42.5001 66.1325C42.3932 66.1325 42.2864 66.1538 42.2009 66.1966C42.1155 66.2393 42.03 66.2821 41.9445 66.3675C41.8804 66.4316 41.8163 66.5171 41.7736 66.6239C41.7308 66.7094 41.7095 66.8162 41.7095 66.9231C41.7095 67.0299 41.7308 67.1367 41.7736 67.2222C41.8163 67.3077 41.859 67.3932 41.9445 67.4786C42.0941 67.6282 42.2864 67.7137 42.5001 67.7137C42.5428 67.7137 42.6069 67.7137 42.6496 67.7137C42.6924 67.7137 42.7565 67.6923 42.7992 67.6709C42.842 67.6068 42.8847 67.5855 42.9274 67.5427Z" fill="#F14914"/>
<path d="M41.7736 17.7991C41.7308 17.8846 41.7095 17.9914 41.7095 18.0983C41.7095 18.2051 41.7308 18.312 41.7736 18.3974C41.8163 18.4829 41.8804 18.5684 41.9445 18.6538C42.0086 18.7179 42.0941 18.782 42.2009 18.8248C42.2864 18.8675 42.3932 18.8889 42.5001 18.8889C42.7137 18.8889 42.9061 18.8034 43.0556 18.6538C43.3548 18.3547 43.3548 17.8419 43.0556 17.5427C42.9061 17.3931 42.7137 17.3077 42.5001 17.3077C42.3932 17.3077 42.2864 17.329 42.2009 17.3718C42.1155 17.4145 42.03 17.4573 41.9445 17.5427C41.859 17.6068 41.7949 17.7137 41.7736 17.7991Z" fill="#F14914"/>
<path d="M42.5001 21.9658C42.9274 21.9658 43.2907 21.6026 43.2907 21.1752C43.2907 20.7479 42.9274 20.3846 42.5001 20.3846C42.0727 20.3846 41.7095 20.7479 41.7095 21.1752C41.7095 21.6239 42.0513 21.9658 42.5001 21.9658Z" fill="#F14914"/>
<path d="M41.923 24.8077C42.0085 24.8718 42.094 24.9359 42.1794 24.9786C42.2649 25.0214 42.3718 25.0427 42.4786 25.0427C42.6923 25.0427 42.9059 24.9573 43.0341 24.8077C43.3333 24.5086 43.3333 23.9744 43.0341 23.6966C42.8846 23.547 42.6923 23.4615 42.4786 23.4615C42.2649 23.4615 42.0726 23.547 41.923 23.6966C41.7735 23.8462 41.688 24.0385 41.688 24.2521C41.7094 24.4658 41.7948 24.6581 41.923 24.8077Z" fill="#F14914"/>
<path d="M28.1196 17.906C26.1324 16.4743 24.1025 15.0641 21.9016 13.8248C23.1409 16.0043 24.5512 18.0342 25.9828 20.0427C27.4358 22.0299 28.9315 23.953 30.4914 25.8333C32.0512 27.7137 33.6537 29.5513 35.2777 31.3248C37.8632 34.1666 40.4486 36.7307 42.4999 38.8034C46.0896 35.1496 47.9914 33.2265 49.7008 31.3248C51.3461 29.5299 52.9486 27.7137 54.5084 25.8333C56.0469 23.953 57.564 22.0299 59.017 20.0427C60.4486 18.0555 61.8589 16.0256 63.0982 13.8248C60.8973 15.0641 58.8674 16.4743 56.8802 17.906C54.8931 19.359 52.97 20.8547 51.0896 22.4145C49.2093 23.953 47.3717 25.5769 45.5982 27.2008C45.0213 27.7137 43.1837 29.4444 42.5213 30.1068C41.4956 29.1239 40.47 28.1624 39.4443 27.2008C37.6495 25.5555 35.8332 23.953 33.9529 22.4145C32.0298 20.876 30.1067 19.359 28.1196 17.906ZM42.4999 36.5598C40.5341 34.5726 38.6324 32.6496 36.4529 30.2778C34.6794 28.3333 33.1409 26.5598 31.7093 24.829C30.1067 22.8846 28.7179 21.1111 27.4785 19.4017C29.1666 20.641 30.9614 22.0299 32.9059 23.6325C34.6367 25.0641 36.4102 26.6025 38.3546 28.376C39.252 29.2094 40.2349 30.1068 41.4102 31.2607L42.5213 32.329C42.7349 32.1154 44.5512 30.2991 46.6666 28.3974C48.7606 26.4957 50.47 24.9786 52.0939 23.6538C54.0597 22.0299 55.8332 20.641 57.564 19.4017C56.3247 21.1111 54.9144 22.906 53.3119 24.8718C51.9871 26.4957 50.47 28.2265 48.5683 30.3205C46.2178 32.7778 45.3204 33.6752 42.4999 36.5598Z" fill="#F14914"/>
<path d="M62.5642 51.0897C61.0044 49.2094 59.4018 47.3718 57.7779 45.5983C56.8377 44.5513 55.8548 43.5256 54.8719 42.5214C55.5343 41.859 57.265 40 57.7779 39.4444C59.4232 37.6496 61.0257 35.8333 62.5642 33.953C64.124 32.0726 65.6197 30.1496 67.0727 28.1624C68.5044 26.1752 69.9146 24.1453 71.1539 21.9444C68.9531 23.1837 66.9232 24.594 64.936 26.0256C62.9488 27.4786 61.0257 28.9743 59.1454 30.5342C57.265 32.094 55.4274 33.6966 53.6539 35.3419C51.7522 37.0513 49.8505 38.953 46.1753 42.5427C48.2479 44.594 50.812 47.1795 53.6539 49.7649C55.4488 51.4102 57.265 53.0128 59.1454 54.5513C61.0257 56.1111 62.9488 57.6068 64.936 59.0598C66.9232 60.4914 68.9531 61.9017 71.1539 63.141C69.9146 60.9615 68.5044 58.9316 67.0727 56.9231C65.6411 54.8932 64.124 52.9701 62.5642 51.0897ZM54.7223 36.453C56.8163 34.5513 58.5471 33.0555 60.171 31.7094C62.1368 30.0855 63.9317 28.6966 65.6411 27.4572C64.3804 29.1667 62.9915 30.9615 61.389 32.9273C60.0642 34.5513 58.5471 36.282 56.6454 38.3547C54.7437 40.4701 52.9061 42.2863 52.7138 42.5L53.7821 43.6111C54.9146 44.7863 55.8334 45.7479 56.6667 46.6667C58.4403 48.6111 59.9787 50.3846 61.4103 52.1154C63.0129 54.0598 64.4018 55.8333 65.6411 57.5427C63.9317 56.3034 62.1582 54.9145 60.2138 53.312C58.483 51.8803 56.7095 50.3419 54.765 48.5684C52.3719 46.3889 50.4702 44.4872 48.483 42.5214C51.3249 39.6581 52.2223 38.7607 54.7223 36.453Z" fill="#F14914"/>
<path d="M17.9059 56.8803C16.4743 58.8675 15.064 60.8974 13.8247 63.0983C16.0042 61.859 18.0341 60.4487 20.0427 59.0171C22.0298 57.5641 23.9529 56.0684 25.8333 54.5085C27.7136 52.9487 29.5512 51.3461 31.3247 49.7222C34.1666 47.1367 36.7307 44.5513 38.8033 42.5C35.1495 38.9102 33.2264 37.0085 31.3247 35.2991C29.5298 33.6538 27.7136 32.0513 25.8333 30.4914C23.9529 28.953 22.0298 27.4359 20.0427 25.9829C18.0555 24.5513 16.0256 23.141 13.8247 21.9017C15.064 24.1026 16.4743 26.1325 17.9059 28.1197C19.3589 30.1068 20.8546 32.0299 22.4145 33.9102C23.9529 35.7906 25.5768 37.6282 27.2008 39.4017C27.7136 39.9786 29.4444 41.8162 30.1068 42.4786C29.1239 43.5043 28.1623 44.5299 27.2008 45.5555C25.5555 47.3504 23.9529 49.1667 22.4145 51.047C20.876 52.9701 19.3589 54.8932 17.9059 56.8803ZM36.5598 42.5C34.5726 44.4658 32.6495 46.3675 30.2777 48.547C28.3333 50.3205 26.5598 51.859 24.829 53.2906C22.8845 54.8932 21.111 56.282 19.4016 57.5214C20.6409 55.8333 22.0298 54.0385 23.6324 52.094C25.064 50.3632 26.6025 48.5897 28.376 46.6453C29.2093 45.7479 30.1068 44.765 31.2606 43.5897L32.329 42.4786C32.1153 42.265 30.2991 40.4487 28.3974 38.3333C26.4957 36.2393 24.9786 34.5299 23.6538 32.906C22.0298 30.9402 20.6409 29.1667 19.4016 27.4359C21.111 28.6752 22.9059 30.0855 24.8717 31.688C26.4957 33.0128 28.2264 34.5299 30.3204 36.4316C32.7777 38.7607 33.6751 39.6581 36.5598 42.5Z" fill="#F14914"/>
</svg>
