<svg width="22" height="24" viewBox="0 0 22 24" fill="none" xmlns="http://www.w3.org/2000/svg">
<path d="M20.3984 6.09375H16.8828V3.51562C16.8828 3.12731 16.568 2.8125 16.1797 2.8125H14.375V0.703125C14.375 0.314812 14.0601 0 13.6719 0H8.32812C7.93981 0 7.625 0.314812 7.625 0.703125V2.8125H5.82031C5.432 2.8125 5.11719 3.12731 5.11719 3.51562V6.09375H1.60156C1.21325 6.09375 0.898438 6.40856 0.898438 6.79688V23.2969C0.898438 23.6852 1.21325 24 1.60156 24H20.3984C20.7867 24 21.1016 23.6852 21.1016 23.2969V6.79688C21.1016 6.40856 20.7867 6.09375 20.3984 6.09375ZM9.03125 1.40625H12.9688V2.8125H9.03125V1.40625ZM2.30469 7.5H5.11719V22.5938H2.30469V7.5ZM6.52344 4.21875H15.4766V22.5938H13.8125V19.0781C13.8125 18.6898 13.4976 18.375 13.1094 18.375H8.89062C8.50231 18.375 8.1875 18.6898 8.1875 19.0781V22.5938H6.52344V4.21875ZM12.4062 22.5938H9.59375V19.7812H12.4062V22.5938ZM19.6953 22.5938H16.8828V7.5H19.6953V22.5938Z" fill="#575C74"/>
<path d="M9.59375 7.5H12.4062C12.7945 7.5 13.1094 7.18519 13.1094 6.79688C13.1094 6.40856 12.7945 6.09375 12.4062 6.09375H9.59375C9.20544 6.09375 8.89062 6.40856 8.89062 6.79688C8.89062 7.18519 9.20544 7.5 9.59375 7.5Z" fill="#575C74"/>
<path d="M10.3052 16.1613V16.2656C10.3052 16.6539 10.62 16.9688 11.0083 16.9688C11.3967 16.9688 11.7115 16.6539 11.7115 16.2656V16.1948C12.5309 15.9939 13.1643 15.3841 13.3044 14.5994C13.4346 13.8698 13.1074 12.9181 11.798 12.4352C11.195 12.2128 10.6327 11.9708 10.4468 11.8896C10.352 11.808 10.3504 11.7002 10.3591 11.6397C10.3697 11.5657 10.4246 11.3845 10.7044 11.3002C11.3795 11.0968 11.9636 11.5634 11.9968 11.5905C12.2837 11.8443 12.7224 11.8217 12.9816 11.5378C13.2435 11.251 13.2232 10.8062 12.9365 10.5444C12.9291 10.5377 12.4487 10.1085 11.7114 9.92433V9.84375C11.7114 9.45544 11.3966 9.14062 11.0083 9.14062C10.62 9.14062 10.3052 9.45544 10.3052 9.84375V9.95198C10.303 9.95264 10.3009 9.95306 10.2987 9.95372C9.57772 10.1709 9.06743 10.7404 8.96708 11.4399C8.87253 12.0981 9.158 12.7313 9.71192 13.0924C9.74295 13.1126 9.77553 13.1304 9.80942 13.1455C9.83853 13.1585 10.5313 13.4669 11.3113 13.7546C11.4688 13.8127 11.978 14.0274 11.92 14.3522C11.8755 14.6015 11.5638 14.8594 11.1192 14.8594C10.6421 14.8594 10.1837 14.6678 9.89281 14.347C9.63204 14.0593 9.18734 14.0375 8.89967 14.2983C8.6119 14.559 8.59006 15.0037 8.85087 15.2915C9.23426 15.7143 9.74159 16.0138 10.3052 16.1613Z" fill="#575C74"/>
</svg>
