<svg width="24" height="24" viewBox="0 0 24 24" fill="none" xmlns="http://www.w3.org/2000/svg">
<path d="M7.39357 9.71333H7.60023C7.5505 9.26848 7.57074 8.81858 7.66023 8.38C7.40594 8.42868 7.14312 8.40555 6.90124 8.3132C6.65936 8.22084 6.448 8.06292 6.29086 7.85715C6.13372 7.65138 6.03703 7.40589 6.01163 7.14823C5.98622 6.89057 6.03311 6.63093 6.14704 6.39843C6.26096 6.16593 6.43741 5.96977 6.6566 5.83196C6.87578 5.69415 7.12903 5.62014 7.38794 5.61822C7.64684 5.61631 7.90115 5.68657 8.12235 5.82113C8.34355 5.95568 8.52288 6.14921 8.64023 6.38C8.93744 6.0372 9.28603 5.74259 9.67357 5.50666C9.41494 5.11156 9.05814 4.7904 8.63811 4.57463C8.21807 4.35885 7.74919 4.25587 7.27739 4.27575C6.80559 4.29563 6.34704 4.4377 5.94665 4.68805C5.54625 4.9384 5.21774 5.28844 4.99327 5.7039C4.76881 6.11936 4.65608 6.58599 4.66615 7.0581C4.67621 7.53021 4.80871 7.99162 5.05067 8.39713C5.29264 8.80265 5.63577 9.13838 6.04646 9.37144C6.45716 9.6045 6.92135 9.7269 7.39357 9.72666V9.71333Z" fill="#575C74"/>
<path d="M8.66678 12.0933C8.28888 11.6651 7.99893 11.1668 7.81344 10.6267H7.39344C6.60195 10.5981 5.81302 10.7324 5.07561 11.0214C4.33821 11.3104 3.66807 11.7479 3.10678 12.3067L2.94678 12.4933V17.16H4.28011V13.0067C5.15392 12.2848 6.26057 11.9057 7.39344 11.94C7.82248 11.9403 8.24994 11.9918 8.66678 12.0933Z" fill="#575C74"/>
<path d="M20.8998 12.28C20.3461 11.7265 19.6847 11.2924 18.9566 11.0046C18.2284 10.7168 17.449 10.5814 16.6665 10.6067C16.4532 10.6067 16.2665 10.6067 16.0665 10.6467C15.8711 11.2024 15.5649 11.7127 15.1665 12.1467C15.6539 12.0059 16.1592 11.9363 16.6665 11.94C17.7914 11.9032 18.8912 12.2777 19.7598 12.9933V17.1733H21.0932V12.4667L20.8998 12.28Z" fill="#575C74"/>
<path d="M11.9068 12.2C12.4961 12.2 13.0723 12.0252 13.5624 11.6978C14.0524 11.3703 14.4344 10.9049 14.6599 10.3604C14.8855 9.81588 14.9445 9.2167 14.8295 8.63863C14.7145 8.06057 14.4307 7.52959 14.0139 7.11282C13.5972 6.69606 13.0662 6.41225 12.4881 6.29726C11.9101 6.18228 11.3109 6.24129 10.7664 6.46684C10.2218 6.69239 9.75642 7.07435 9.42898 7.5644C9.10153 8.05446 8.92676 8.63061 8.92676 9.22C8.92676 10.0103 9.24072 10.7683 9.79958 11.3272C10.3584 11.886 11.1164 12.2 11.9068 12.2ZM11.9068 7.58C12.2324 7.58 12.5508 7.67658 12.8216 7.85752C13.0924 8.03845 13.3034 8.29563 13.4281 8.59652C13.5527 8.89741 13.5853 9.2285 13.5218 9.54792C13.4582 9.86734 13.3014 10.1607 13.0711 10.391C12.8408 10.6213 12.5474 10.7782 12.228 10.8417C11.9086 10.9052 11.5775 10.8726 11.2766 10.748C10.9757 10.6234 10.7185 10.4123 10.5376 10.1415C10.3567 9.87072 10.2601 9.55235 10.2601 9.22667C10.2601 8.78995 10.4336 8.37111 10.7424 8.0623C11.0512 7.75349 11.47 7.58 11.9068 7.58Z" fill="#575C74"/>
<path d="M12.0665 13.1533C11.1951 13.1226 10.3265 13.2686 9.513 13.5825C8.69953 13.8965 7.95802 14.3718 7.33317 14.98L7.1665 15.1667V20.0533C7.1691 20.1914 7.19897 20.3275 7.25441 20.454C7.30984 20.5804 7.38974 20.6946 7.48951 20.79C7.58927 20.8855 7.70693 20.9602 7.8357 21.01C7.96448 21.0597 8.10183 21.0835 8.23984 21.08H15.8865C16.0245 21.0835 16.1619 21.0597 16.2906 21.01C16.4194 20.9602 16.5371 20.8855 16.6368 20.79C16.7366 20.6946 16.8165 20.5804 16.8719 20.454C16.9274 20.3275 16.9572 20.1914 16.9598 20.0533V15.1533L16.7932 14.9667C16.1705 14.3582 15.43 13.8835 14.6172 13.5717C13.8044 13.2598 12.9364 13.1175 12.0665 13.1533ZM15.6198 19.74H8.4865V15.7C9.49409 14.8764 10.7658 14.4454 12.0665 14.4867C13.3572 14.4433 14.6197 14.8697 15.6198 15.6867V19.74Z" fill="#575C74"/>
<path d="M17.5799 8C17.3977 8.17331 17.1701 8.29157 16.9236 8.34111C16.6771 8.39066 16.4215 8.36947 16.1865 8.28C16.2524 8.58224 16.286 8.89065 16.2865 9.2C16.2943 9.35101 16.2943 9.50232 16.2865 9.65333C16.4121 9.67573 16.5391 9.6891 16.6665 9.69333C17.0967 9.69186 17.5204 9.58837 17.9029 9.39136C18.2853 9.19435 18.6156 8.90943 18.8665 8.56C18.4133 8.43517 17.9801 8.24662 17.5799 8Z" fill="#575C74"/>
<path d="M15.2998 4.62C14.8979 4.85288 14.5609 5.18298 14.3198 5.58C14.7046 5.83589 15.0466 6.15087 15.3332 6.51334C15.4169 6.29941 15.552 6.10938 15.7265 5.96C15.5213 5.53587 15.3777 5.08467 15.2998 4.62Z" fill="#575C74"/>
<path d="M20.2201 7.11333C22.061 7.11333 23.5534 5.62095 23.5534 3.78C23.5534 1.93905 22.061 0.446663 20.2201 0.446663C18.3791 0.446663 16.8867 1.93905 16.8867 3.78C16.8867 5.62095 18.3791 7.11333 20.2201 7.11333Z" fill="#575C74"/>
</svg>
