<svg width="20" height="20" viewBox="0 0 20 20" fill="none" xmlns="http://www.w3.org/2000/svg">
<path d="M20 10C20 15.5227 15.5226 20 9.99981 20C4.47701 20 0 15.5227 0 10C0 4.47732 4.47701 0 9.99981 0C15.5226 0 20 4.47732 20 10Z" fill="#D2763E"/>
<path d="M19.4266 10.0389C19.4266 15.2253 15.2221 19.4297 10.0356 19.4297C4.84912 19.4297 0.64502 15.2253 0.64502 10.0389C0.64502 4.85248 4.84912 0.648071 10.0356 0.648071C15.2221 0.648071 19.4266 4.85248 19.4266 10.0389Z" fill="#FECB50"/>
<path d="M17.206 10.0389C17.206 13.9984 13.9956 17.2087 10.0356 17.2087C6.07566 17.2087 2.86523 13.9984 2.86523 10.0389C2.86523 6.0794 6.07566 2.86865 10.0356 2.86865C13.9956 2.86865 17.206 6.07901 17.206 10.0389Z" fill="#BF6718"/>
<path d="M16.8191 10.0389C16.8191 11.3768 16.4223 12.6846 15.679 13.797C14.9357 14.9094 13.8793 15.7764 12.6432 16.2884C11.4072 16.8004 10.047 16.9343 8.73486 16.6733C7.42267 16.4123 6.21735 15.7681 5.27132 14.822C4.32529 13.876 3.68103 12.6707 3.42002 11.3586C3.15901 10.0464 3.29297 8.68632 3.80496 7.4503C4.31695 6.21427 5.18397 5.15782 6.29639 4.41454C7.40881 3.67126 8.71665 3.27454 10.0545 3.27454C11.8486 3.27454 13.5692 3.98721 14.8378 5.25578C16.1064 6.52434 16.8191 8.24489 16.8191 10.0389Z" fill="#F6A33E"/>
<path d="M3.10712 11.8886L1.15513 13.0938C0.815945 12.1109 0.643291 11.0783 0.644291 10.0385C0.644291 9.95843 0.646235 9.8799 0.648179 9.80215L3.07796 8.29883C2.78487 9.47874 2.7949 10.7136 3.10712 11.8886Z" fill="#FFF151"/>
<path d="M16.7385 3.46417L14.7885 4.66932C13.879 3.86195 12.7786 3.29996 11.5913 3.03654L14.023 1.53516C15.0361 2.01085 15.9558 2.66417 16.7385 3.46417Z" fill="#FFF151"/>
<path d="M4.27644 14.3133L2.38355 15.4819C2.08568 15.0652 1.82313 14.6244 1.59863 14.164L3.49891 12.99C3.71078 13.4572 3.97141 13.9008 4.27644 14.3133Z" fill="#BF6718"/>
<path d="M18.3271 5.62918L16.4353 6.80323C16.2037 6.34456 15.9226 5.91255 15.5972 5.51489L17.4967 4.34045C17.8086 4.74635 18.0864 5.1774 18.3271 5.62918Z" fill="#BF6718"/>
<path d="M8.48161 17.0396L6.04756 18.5437C5.21488 18.1538 4.44444 17.6429 3.76123 17.0276L5.75365 15.7925C6.56468 16.3962 7.49441 16.8212 8.48161 17.0396Z" fill="#F69F1D"/>
<path d="M19.427 10.0385C19.427 10.1162 19.427 10.1983 19.4235 10.2764L16.9771 11.7887C17.2381 10.8095 17.2765 9.78422 17.0894 8.78824L19.0927 7.55005C19.3152 8.36079 19.4276 9.19777 19.427 10.0385Z" fill="#F69F1D"/>
<path d="M11.9988 11.3371C11.9988 9.94559 11.07 9.54659 10.0651 9.322L9.53254 9.2081C8.74498 9.04462 8.68421 8.80341 8.68421 8.48053C8.68421 8.06155 9.0418 7.81115 9.64083 7.81115C10.3502 7.81115 10.532 8.1874 10.6074 8.47003L10.6146 8.49351C10.7038 8.73997 10.9111 8.88697 11.1698 8.88697C11.2368 8.88697 11.297 8.87618 11.3421 8.86656C11.6197 8.80822 11.813 8.57489 11.813 8.29853C11.813 8.22999 11.8013 8.16203 11.7777 8.09596C11.6354 7.61296 11.2357 6.85272 10.1281 6.67918V5.85083C10.1281 5.16089 9.10464 5.16089 9.10464 5.85083V6.68413C7.91488 6.88072 7.47676 7.73531 7.47676 8.48024C7.47676 9.83563 8.37067 10.2135 9.24387 10.4037L9.81997 10.5329C10.6404 10.709 10.785 10.9349 10.785 11.3441C10.785 11.8442 10.3846 12.1423 9.71334 12.1423C8.84194 12.1423 8.66432 11.728 8.54553 11.2629C8.47606 11.0055 8.25576 10.8397 7.98407 10.8397C7.92482 10.8397 7.87731 10.848 7.81999 10.8584L7.80272 10.8619C7.52179 10.9323 7.33325 11.1659 7.33325 11.4429C7.33325 11.4955 7.34209 11.5403 7.34927 11.5765L7.35811 11.6179C7.48449 12.0689 7.7635 13.0541 9.15506 13.2738V14.1408C9.15506 14.486 9.41224 14.6667 9.66665 14.6667C9.92107 14.6667 10.1785 14.486 10.1785 14.1408V13.289C11.2835 13.137 11.9999 12.3917 11.9999 11.3373" fill="#2E3648"/>
</svg>
