<svg width="24" height="24" viewBox="0 0 24 24" fill="none" xmlns="http://www.w3.org/2000/svg">
<g clip-path="url(#clip0_323:36052)">
<path d="M22.8032 6.93141C22.5736 6.80893 22.3247 6.72699 22.0672 6.68917C20.8329 6.50681 19.6845 7.35959 19.5021 8.59388C19.417 9.17032 19.5578 9.75735 19.8953 10.2324L17.4898 12.4164C16.652 11.4897 15.2217 11.4175 14.295 12.2553C14.092 12.4388 13.9239 12.6576 13.7991 12.9011L11.0253 10.6623C11.0885 9.41519 10.1287 8.35309 8.88168 8.28996C7.63462 8.22683 6.57252 9.18654 6.50939 10.4336C6.50215 10.5765 6.50851 10.7198 6.52835 10.8615L3.91381 13.5368C3.06382 12.6232 1.63409 12.5716 0.720458 13.4216C-0.193175 14.2716 -0.244785 15.7014 0.605253 16.615C1.45524 17.5286 2.88497 17.5802 3.7986 16.7302C4.41451 16.1572 4.66109 15.2895 4.43854 14.4782L6.95765 11.9006C7.70519 12.9002 9.12154 13.1047 10.1212 12.3571C10.3515 12.1849 10.5468 11.9703 10.6967 11.7249L13.553 14.0303C13.6004 15.1138 14.4103 16.011 15.4832 16.1687C15.5936 16.185 15.7051 16.1932 15.8167 16.1932C17.0666 16.1895 18.0768 15.1732 18.073 13.9234C18.0724 13.7301 18.047 13.5377 17.9976 13.3509L20.6743 10.9206C21.7759 11.5084 23.1455 11.092 23.7333 9.99039C24.3212 8.88882 23.9047 7.51927 22.8032 6.93141ZM3.47298 15.2529C3.37493 15.9243 2.75117 16.3891 2.07983 16.291C1.40849 16.1929 0.943687 15.5692 1.04179 14.8978C1.13985 14.2265 1.76361 13.7617 2.43495 13.8598C2.43557 13.8599 2.43619 13.86 2.43681 13.86C3.10706 13.9594 3.57057 14.5824 3.47298 15.2529ZM9.98238 10.7246C9.8835 11.3952 9.25974 11.8588 8.58907 11.76C7.9184 11.6612 7.45479 11.0374 7.55362 10.3667C7.64222 9.76551 8.15734 9.31962 8.76508 9.31817C8.82558 9.31823 8.88602 9.32262 8.9459 9.33145C9.61636 9.43064 10.0801 10.0538 9.98238 10.7246ZM17.0265 14.1103C16.9276 14.781 16.3039 15.2446 15.6332 15.1457C14.9625 15.0469 14.4989 14.4232 14.5978 13.7525C14.6864 13.1512 15.2016 12.7053 15.8093 12.7039C15.8698 12.7039 15.9303 12.7084 15.9901 12.7172C16.6609 12.8158 17.1248 13.4394 17.0263 14.1102V14.1103H17.0265ZM22.9531 9.1043C22.8548 9.77543 22.231 10.2398 21.5598 10.1415C20.8887 10.0432 20.4243 9.41938 20.5226 8.74825C20.6209 8.07711 21.2447 7.61273 21.9159 7.71104C21.9162 7.71109 21.9165 7.71114 21.9169 7.71119C22.5877 7.80982 23.0515 8.43352 22.953 9.1043H22.9531Z" fill="#575C74"/>
</g>
<defs>
<clipPath id="clip0_323:36052">
<rect width="24" height="24" fill="white"/>
</clipPath>
</defs>
</svg>
