<svg width="21" height="21" viewBox="0 0 21 21" fill="none" xmlns="http://www.w3.org/2000/svg">
<g clip-path="url(#clip0_325:4909)">
<path d="M20.9283 20.0979L19.0817 16.5494C20.3267 14.7918 20.9976 12.6967 20.9976 10.4986C20.9976 4.6962 16.3023 0.000488282 10.4995 0.000488282C4.69698 0.000447266 0.00123126 4.69583 0.00123126 10.4986C0.00123126 12.5491 0.588082 14.5228 1.70186 16.2284L0.0496296 20.1426C-0.162626 20.646 0.343506 21.1635 0.855463 20.9484L4.7697 19.2962C8.36455 21.6438 13.0586 21.5542 16.5502 19.0809L20.0987 20.9275C20.6312 21.2047 21.2043 20.628 20.9283 20.0979ZM5.19085 18.0959C5.01477 17.9721 4.78927 17.9516 4.59871 18.0331L1.77159 19.2265L2.96493 16.3994C3.04738 16.2042 3.02359 15.9807 2.90218 15.8072C1.80932 14.2464 1.23149 12.4105 1.23149 10.4986C1.23149 5.38818 5.38891 1.23071 10.4994 1.23071C17.6993 1.23071 22.164 9.13984 18.428 15.2937L17.7435 13.9786C20.3089 8.64757 16.3971 2.46097 10.4994 2.46097C6.06764 2.46097 2.46176 6.06645 2.46176 10.4986C2.46176 16.3913 8.64321 20.3106 13.9794 17.7428L15.2945 18.4272C12.1847 20.3152 8.21357 20.2124 5.19085 18.0959ZM14.2673 16.5055C14.0861 16.4117 13.8716 16.4137 13.6935 16.5084C9.18835 18.9141 3.69202 15.6324 3.69202 10.4986C3.69202 6.74514 6.74591 3.69124 10.4994 3.69124C15.6361 3.69124 18.9132 9.19078 16.5092 13.6928C16.4137 13.8716 16.4128 14.0865 16.5063 14.2665C18.7176 18.5149 16.9901 15.196 18.9365 18.9357C15.2772 17.0312 18.4783 18.6974 14.2673 16.5055Z" fill="#575C73"/>
<path d="M10.4995 15.9322C10.9091 15.9322 11.2412 15.6002 11.2412 15.1905C11.2412 14.7809 10.9091 14.4489 10.4995 14.4489C10.0899 14.4489 9.75781 14.7809 9.75781 15.1905C9.75781 15.6002 10.0899 15.9322 10.4995 15.9322Z" fill="#575C73"/>
<path d="M10.594 5.02405H10.4051C8.56631 5.02405 7.07031 6.52005 7.07031 8.35886C7.07031 8.6986 7.34573 8.97398 7.68542 8.97398C8.02515 8.97398 8.30053 8.69856 8.30053 8.35886C8.30053 7.19841 9.24463 6.25431 10.4051 6.25431H10.5939C11.7544 6.25431 12.6984 7.19841 12.6984 8.35886C12.6984 9.44422 11.8616 10.4634 10.4995 10.4634C10.1597 10.4634 9.88435 10.7388 9.88435 11.0785V12.3981C9.88435 12.7379 10.1598 13.0132 10.4995 13.0132C10.8391 13.0132 11.1146 12.7378 11.1146 12.3981V11.653C12.7069 11.4023 13.9286 10.0205 13.9286 8.35882C13.9287 6.52005 12.4328 5.02405 10.594 5.02405Z" fill="#575C73"/>
</g>
<defs>
<clipPath id="clip0_325:4909">
<rect width="21" height="21" fill="white"/>
</clipPath>
</defs>
</svg>
