<svg width="25" height="25" viewBox="0 0 25 25" fill="none" xmlns="http://www.w3.org/2000/svg">
<path d="M20.3638 11.4551C19.8898 10.3883 19.2008 9.43082 18.3398 8.64255L17.6294 7.99069C17.6053 7.96917 17.5762 7.95389 17.5448 7.94621C17.5134 7.93852 17.4806 7.93866 17.4493 7.94662C17.418 7.95457 17.389 7.9701 17.3651 7.99183C17.3412 8.01356 17.3229 8.04084 17.312 8.07126L16.9946 8.98191C16.7969 9.55319 16.4331 10.1367 15.918 10.7104C15.8838 10.747 15.8447 10.7568 15.8179 10.7592C15.791 10.7617 15.7495 10.7568 15.7129 10.7226C15.6787 10.6933 15.6616 10.6494 15.6641 10.6054C15.7544 9.13571 15.3149 7.478 14.353 5.6738C13.5571 4.17478 12.4512 3.00534 11.0693 2.18991L10.061 1.59665C9.9292 1.51853 9.76074 1.62106 9.76807 1.77487L9.82178 2.94675C9.8584 3.74753 9.76562 4.45554 9.5459 5.04392C9.27734 5.76413 8.8916 6.43308 8.39844 7.03366C8.05523 7.45105 7.66624 7.82858 7.23877 8.15915C6.20924 8.95057 5.3721 9.96465 4.79004 11.1255C4.20941 12.2964 3.90696 13.5856 3.90625 14.8925C3.90625 16.0449 4.1333 17.1606 4.58252 18.2129C5.01628 19.226 5.64223 20.1454 6.42578 20.9204C7.2168 21.7016 8.13477 22.3169 9.15771 22.7441C10.2173 23.1884 11.3403 23.4131 12.5 23.4131C13.6597 23.4131 14.7827 23.1884 15.8423 22.7466C16.8627 22.3218 17.7906 21.7024 18.5742 20.9228C19.3652 20.1416 19.9853 19.2285 20.4175 18.2153C20.866 17.1659 21.0961 16.0362 21.0937 14.895C21.0937 13.7036 20.8496 12.5464 20.3638 11.4551ZM17.4072 19.7387C16.0962 21.0376 14.3555 21.7505 12.5 21.7505C10.6445 21.7505 8.90381 21.0376 7.59277 19.7387C6.28662 18.4424 5.56641 16.7236 5.56641 14.895C5.56641 13.833 5.80566 12.8149 6.27686 11.8676C6.73584 10.9424 7.41943 10.1147 8.24951 9.47751C8.7789 9.07271 9.25906 8.6073 9.68018 8.09079C10.2905 7.34616 10.769 6.51608 11.1011 5.62497C11.2373 5.25739 11.3362 4.87706 11.3965 4.48972C11.9849 5.03171 12.478 5.68601 12.8906 6.45261C13.7061 7.98093 14.082 9.34079 14.0088 10.498C13.9913 10.7706 14.0358 11.0435 14.139 11.2964C14.2422 11.5493 14.4013 11.7755 14.6045 11.958C14.7806 12.117 14.9865 12.2395 15.2103 12.3183C15.4341 12.3971 15.6713 12.4306 15.9082 12.417C16.3892 12.3926 16.8311 12.1801 17.1533 11.8213C17.478 11.4575 17.7588 11.0864 17.9932 10.708C18.335 11.145 18.6206 11.6211 18.8477 12.1338C19.2358 13.0078 19.4336 13.938 19.4336 14.895C19.4336 16.7236 18.7134 18.4448 17.4072 19.7387Z" fill="#575C74"/>
</svg>
