<svg width="22" height="22" viewBox="0 0 22 22" fill="none" xmlns="http://www.w3.org/2000/svg">
<path d="M19.8982 18.6018L18.0438 16.7474C19.4192 15.149 20.1726 13.1086 20.1659 10.9999C20.1659 7.24981 17.8999 4.16797 14.6668 2.74989V4.58322C16.8549 5.85372 18.3326 8.29297 18.3326 10.9999C18.3286 12.6284 17.7901 14.2106 16.7999 15.5035L15.622 14.3256C16.1738 13.3246 16.5002 12.0907 16.5002 10.9999C16.5002 9.37647 15.7897 7.42489 14.6668 6.41656V13.3704L12.8335 11.5371V3.66656C12.8334 3.50075 12.7884 3.33806 12.7031 3.19584C12.6179 3.05361 12.4957 2.93716 12.3495 2.8589C12.2033 2.78064 12.0386 2.74349 11.873 2.75141C11.7074 2.75933 11.547 2.81203 11.409 2.90389L7.08325 5.78681L3.39825 2.10181L2.10208 3.39797L18.6021 19.898L19.8982 18.6018ZM11.0002 5.37889V9.70372L8.40508 7.10864L11.0002 5.37889ZM3.66683 15.5832H6.13908L11.4081 19.0959C11.5463 19.1877 11.7068 19.2404 11.8725 19.2485C12.0382 19.2565 12.203 19.2197 12.3495 19.1417C12.4958 19.0634 12.6181 18.9468 12.7033 18.8044C12.7886 18.662 12.8336 18.4992 12.8335 18.3332V16.6108L11.0002 14.7775V16.6209L6.92558 13.9039C6.90266 13.8883 6.87425 13.8856 6.85041 13.8736C6.74216 13.8147 6.623 13.7785 6.50025 13.7673C6.47091 13.7646 6.44616 13.7499 6.41683 13.7499H3.66683V8.24989H4.47258L2.84366 6.62097C2.54106 6.77244 2.28642 7.0049 2.10808 7.29249C1.92973 7.58007 1.83468 7.9115 1.8335 8.24989V13.7499C1.8335 14.761 2.65575 15.5832 3.66683 15.5832Z" fill="white"/>
</svg>
