<svg width="22" height="22" viewBox="0 0 22 22" fill="none" xmlns="http://www.w3.org/2000/svg">
<path d="M14.6667 19.25C17.8998 17.8319 20.1658 14.7501 20.1658 11C20.1658 7.24992 17.8998 4.16808 14.6667 2.75V4.58333C16.8548 5.85383 18.3325 8.29308 18.3325 11C18.3325 13.7069 16.8548 16.1462 14.6667 17.4167V19.25Z" fill="white"/>
<path d="M14.6666 6.41667V15.5833C15.7895 14.575 16.4999 12.6234 16.4999 11C16.4999 9.37658 15.7895 7.425 14.6666 6.41667ZM3.66659 15.5833H6.13884L11.4078 19.096C11.5461 19.1878 11.7065 19.2405 11.8722 19.2486C12.038 19.2566 12.2028 19.2198 12.3493 19.1418C12.4956 19.0635 12.6179 18.9469 12.7031 18.8045C12.7883 18.6621 12.8333 18.4993 12.8333 18.3333V3.66667C12.8332 3.50086 12.7881 3.33817 12.7029 3.19595C12.6176 3.05372 12.4954 2.93727 12.3493 2.85901C12.2031 2.78075 12.0384 2.7436 11.8728 2.75152C11.7072 2.75944 11.5468 2.81214 11.4088 2.904L6.13884 6.41667H3.66659C2.6555 6.41667 1.83325 7.23892 1.83325 8.25V13.75C1.83325 14.7611 2.6555 15.5833 3.66659 15.5833ZM3.66659 8.25H6.41659C6.44684 8.25 6.4725 8.23533 6.50184 8.23258C6.62376 8.22015 6.74209 8.18403 6.85017 8.12625C6.874 8.1125 6.90242 8.11067 6.92534 8.096L10.9999 5.379V16.621L6.92534 13.904C6.90242 13.8884 6.874 13.8857 6.85017 13.8738C6.74192 13.8148 6.62275 13.7786 6.5 13.7674C6.47067 13.7647 6.44592 13.75 6.41659 13.75H3.66659V8.25Z" fill="white"/>
</svg>
