<svg width="21" height="21" viewBox="0 0 21 21" fill="none" xmlns="http://www.w3.org/2000/svg">
<path d="M18.0894 8.68069H18.0374V7.40718C18.0374 3.31631 14.7212 0 10.6302 0C6.53933 0 3.22306 3.31631 3.22306 7.40718V8.68069H2.9112C1.76763 8.68069 0.883976 9.69428 0.883976 10.8639V14.1126C0.855173 15.2462 1.75081 16.1885 2.88439 16.2173C2.89334 16.2176 2.90225 16.2177 2.9112 16.2178H4.83446C5.10687 16.205 5.31735 15.9737 5.30452 15.7013C5.30407 15.6915 5.30332 15.6817 5.30228 15.672V9.30441C5.30228 8.99255 5.12035 8.68064 4.83446 8.68064H4.26267V7.40713C4.26267 3.89044 7.11355 1.03956 10.6302 1.03956C14.1469 1.03956 16.9978 3.89044 16.9978 7.40713V8.68064H16.426C16.1401 8.68064 15.9582 8.9925 15.9582 9.30441V15.672C15.9292 15.9432 16.1255 16.1865 16.3967 16.2155C16.4064 16.2166 16.4162 16.2173 16.426 16.2178H17.0238L16.9718 16.2957C16.1919 17.3322 14.9682 17.9392 13.6711 17.9331C13.3871 16.5407 12.0281 15.6421 10.6358 15.9261C9.44508 16.169 8.5866 17.2117 8.577 18.4269C8.59123 19.8521 9.75072 21 11.176 20.9999C11.8816 20.9885 12.5541 20.6989 13.0473 20.1942C13.38 19.8534 13.5981 19.4173 13.6711 18.9467C15.2954 18.9528 16.8272 18.1917 17.8035 16.8935L18.2973 16.1657C19.4149 16.0878 20.1166 15.386 20.1166 14.3724V11.1236C20.1166 10.0062 19.285 8.68069 18.0894 8.68069ZM4.26267 15.1782H2.9112C2.35155 15.1646 1.90891 14.6999 1.92254 14.1402C1.92279 14.131 1.92313 14.1218 1.92358 14.1126V10.8638C1.92358 10.2661 2.33941 9.72025 2.9112 9.72025H4.26267V15.1782ZM12.2936 19.4666C12.0056 19.7789 11.6009 19.9577 11.1761 19.9604C10.3305 19.947 9.64427 19.2722 9.61666 18.427C9.61631 17.5801 10.3026 16.8933 11.1495 16.8929C11.9963 16.8926 12.6831 17.5788 12.6835 18.4257C12.6835 18.4261 12.6835 18.4266 12.6835 18.427C12.7051 18.8128 12.5636 19.1901 12.2936 19.4666ZM19.077 14.3725C19.077 15.0742 18.4013 15.1782 18.0894 15.1782H16.9978V9.7203H18.0894C18.6612 9.7203 19.077 10.526 19.077 11.1237V14.3725Z" fill="#575C73"/>
</svg>
