<svg width="22" height="22" viewBox="0 0 22 22" fill="none" xmlns="http://www.w3.org/2000/svg">
<path d="M20.0634 4.76493C19.9287 4.56955 19.6611 4.52036 19.4658 4.65498C19.2704 4.78964 19.2212 5.05716 19.3558 5.25259C20.5235 6.94676 21.1406 8.93419 21.1406 11C21.1406 16.5916 16.5916 21.1406 11 21.1406C5.40843 21.1406 0.859375 16.5916 0.859375 11C0.859375 5.40843 5.40843 0.859375 11 0.859375C13.0635 0.859375 15.0492 1.47533 16.7422 2.6406C16.9377 2.77514 17.2052 2.72572 17.3398 2.5303C17.4744 2.33479 17.4249 2.06727 17.2295 1.93273C15.3924 0.668336 13.2383 0 11 0C8.0618 0 5.29947 1.14421 3.2218 3.2218C1.14421 5.29947 0 8.0618 0 11C0 13.9382 1.14421 16.7005 3.2218 18.7782C5.29947 20.8558 8.0618 22 11 22C13.9382 22 16.7005 20.8558 18.7782 18.7782C20.8558 16.7005 22 13.9382 22 11C22 8.75922 21.3303 6.60318 20.0634 4.76493Z" fill="#575C73"/>
<path d="M11 2.14844C6.11922 2.14844 2.14844 6.11922 2.14844 11C2.14844 15.8808 6.11922 19.8516 11 19.8516C15.8808 19.8516 19.8516 15.8808 19.8516 11C19.8516 6.11922 15.8808 2.14844 11 2.14844ZM17.6941 6.63897L12.6069 9.5761C12.5496 9.51152 12.4885 9.45042 12.4239 9.3931L15.361 4.30586C16.2907 4.91352 17.0865 5.70934 17.6941 6.63897ZM18.9805 10.5703H13.1052C13.0878 10.4848 13.0647 10.4014 13.0374 10.3198L18.1253 7.38233C18.618 8.34879 18.9197 9.42807 18.9805 10.5703ZM18.1253 14.6177L13.0374 11.6802C13.0647 11.5987 13.0878 11.5152 13.1052 11.4297H18.9806C18.9197 12.5719 18.618 13.6512 18.1253 14.6177ZM3.01946 11.4297H8.89483C8.91228 11.5152 8.93531 11.5986 8.96259 11.6802L3.87466 14.6177C3.38198 13.6512 3.08026 12.5719 3.01946 11.4297ZM3.87466 7.38233L8.96255 10.3198C8.93527 10.4014 8.91223 10.4848 8.89479 10.5703H3.01946C3.08026 9.42807 3.38198 8.34879 3.87466 7.38233ZM11 12.2891C10.2892 12.2891 9.71094 11.7108 9.71094 11C9.71094 10.2892 10.2892 9.71094 11 9.71094C11.7108 9.71094 12.2891 10.2892 12.2891 11C12.2891 11.7108 11.7108 12.2891 11 12.2891ZM11.4297 8.89479V3.01946C12.5719 3.08026 13.6512 3.38203 14.6177 3.87466L11.6802 8.96255C11.5986 8.93527 11.5152 8.91223 11.4297 8.89479ZM10.5703 8.89479C10.4848 8.91223 10.4014 8.93527 10.3198 8.96255L7.38233 3.87466C8.34879 3.38198 9.42807 3.08026 10.5703 3.01946V8.89479ZM10.5703 13.1052V18.9806C9.42807 18.9198 8.34879 18.618 7.38233 18.1254L10.3198 13.0375C10.4014 13.0647 10.4848 13.0878 10.5703 13.1052ZM11.4297 13.1052C11.5152 13.0878 11.5986 13.0647 11.6802 13.0374L14.6177 18.1253C13.6512 18.618 12.5719 18.9197 11.4297 18.9805V13.1052ZM6.63897 4.30586L9.5761 9.3931C9.51152 9.45038 9.45042 9.51148 9.3931 9.5761L4.30586 6.63897C4.91352 5.70934 5.70934 4.91352 6.63897 4.30586ZM4.30586 15.361L9.3931 12.4239C9.45038 12.4885 9.51148 12.5496 9.5761 12.6069L6.63897 17.6942C5.70934 17.0865 4.91352 16.2907 4.30586 15.361ZM15.361 17.6941L12.4239 12.6069C12.4885 12.5496 12.5496 12.4885 12.6069 12.4239L17.6942 15.361C17.0865 16.2907 16.2907 17.0865 15.361 17.6941Z" fill="#575C73"/>
<path d="M8.97068 4.84505C9.05104 4.92493 9.16151 4.97095 9.2749 4.97095C9.38748 4.97095 9.49834 4.92497 9.57869 4.84505C9.65861 4.76513 9.70459 4.65427 9.70459 4.54126C9.70459 4.42825 9.65866 4.31739 9.57869 4.23747C9.49834 4.15712 9.38791 4.11157 9.2749 4.11157C9.16146 4.11157 9.05061 4.15712 8.97068 4.23747C8.8908 4.31739 8.84521 4.42787 8.84521 4.54126C8.84521 4.65427 8.89076 4.76513 8.97068 4.84505Z" fill="#575C73"/>
<path d="M13.0401 17.1563C12.9602 17.0764 12.8493 17.0304 12.7363 17.0304C12.6233 17.0304 12.5125 17.0763 12.4325 17.1563C12.3526 17.2362 12.3066 17.3471 12.3066 17.4601C12.3066 17.5731 12.3526 17.684 12.4325 17.7638C12.5125 17.8442 12.6233 17.8898 12.7363 17.8898C12.8493 17.8898 12.9602 17.8442 13.0401 17.7638C13.12 17.684 13.166 17.5731 13.166 17.4601C13.166 17.3471 13.12 17.2362 13.0401 17.1563Z" fill="#575C73"/>
<path d="M17.1613 9.57295C17.2412 9.65283 17.3521 9.69885 17.4651 9.69885C17.5781 9.69885 17.689 9.65288 17.7689 9.57295C17.8488 9.49303 17.8948 9.38217 17.8948 9.26917C17.8948 9.15616 17.8488 9.0453 17.7689 8.96538C17.689 8.8855 17.5781 8.83948 17.4651 8.83948C17.3521 8.83948 17.2412 8.88545 17.1613 8.96538C17.0814 9.0453 17.0354 9.15616 17.0354 9.26917C17.0354 9.38217 17.0814 9.49303 17.1613 9.57295Z" fill="#575C73"/>
<path d="M4.8494 12.427C4.76952 12.3471 4.65905 12.3011 4.54565 12.3011C4.43265 12.3011 4.32179 12.3471 4.24187 12.427C4.16194 12.5069 4.11597 12.6178 4.11597 12.7308C4.11597 12.8438 4.1619 12.9547 4.24187 13.0346C4.32179 13.1145 4.43265 13.1605 4.54565 13.1605C4.65909 13.1605 4.76952 13.1145 4.8494 13.0346C4.92975 12.9547 4.97534 12.8438 4.97534 12.7308C4.97534 12.6178 4.92975 12.5069 4.8494 12.427Z" fill="#575C73"/>
<path d="M6.2768 6.70044C6.3898 6.70044 6.50023 6.65446 6.58054 6.5745C6.66046 6.49462 6.70648 6.38376 6.70648 6.27075C6.70648 6.1577 6.66051 6.04689 6.58054 5.96696C6.50066 5.88704 6.3898 5.84106 6.2768 5.84106C6.16332 5.84106 6.05246 5.887 5.97301 5.96696C5.89266 6.04689 5.84668 6.15731 5.84668 6.27075C5.84668 6.38376 5.89266 6.49462 5.97301 6.5745C6.05293 6.65446 6.16332 6.70044 6.2768 6.70044Z" fill="#575C73"/>
<path d="M15.7344 15.2996C15.6214 15.2996 15.5105 15.3455 15.4306 15.4255C15.3507 15.5054 15.3047 15.6162 15.3047 15.7292C15.3047 15.8423 15.3507 15.9531 15.4306 16.033C15.5105 16.1129 15.6214 16.1589 15.7344 16.1589C15.8474 16.1589 15.9582 16.113 16.0382 16.033C16.118 15.9531 16.1641 15.8423 16.1641 15.7292C16.1641 15.6162 16.1181 15.5054 16.0382 15.4255C15.9582 15.3455 15.8474 15.2996 15.7344 15.2996Z" fill="#575C73"/>
<path d="M15.3047 6.27075C15.3047 6.38376 15.3507 6.49462 15.4306 6.5745C15.5105 6.65442 15.6214 6.70044 15.7344 6.70044C15.8474 6.70044 15.9582 6.65446 16.0382 6.5745C16.118 6.49462 16.1641 6.38376 16.1641 6.27075C16.1641 6.1577 16.1181 6.04689 16.0382 5.96696C15.9582 5.88704 15.8474 5.84106 15.7344 5.84106C15.6214 5.84106 15.5105 5.887 15.4306 5.96696C15.3507 6.04689 15.3047 6.1577 15.3047 6.27075Z" fill="#575C73"/>
<path d="M6.70648 15.7292C6.70648 15.6162 6.66051 15.5054 6.58054 15.4255C6.50023 15.3456 6.3898 15.2996 6.2768 15.2996C6.16332 15.2996 6.05293 15.3455 5.97301 15.4255C5.89266 15.5054 5.84668 15.6162 5.84668 15.7292C5.84668 15.8423 5.89266 15.9531 5.97301 16.033C6.0525 16.1129 6.16336 16.1589 6.2768 16.1589C6.3898 16.1589 6.50066 16.113 6.58054 16.033C6.66051 15.9531 6.70648 15.8423 6.70648 15.7292Z" fill="#575C73"/>
<path d="M4.24187 9.57295C4.32179 9.65283 4.43265 9.69885 4.54565 9.69885C4.65909 9.69885 4.76952 9.65288 4.8494 9.57295C4.92975 9.49303 4.97534 9.38217 4.97534 9.26917C4.97534 9.15616 4.92975 9.0453 4.8494 8.96538C4.76952 8.8855 4.65905 8.83948 4.54565 8.83948C4.43265 8.83948 4.32179 8.88545 4.24187 8.96538C4.16194 9.0453 4.11597 9.15616 4.11597 9.26917C4.11597 9.38217 4.1619 9.49303 4.24187 9.57295Z" fill="#575C73"/>
<path d="M17.7689 12.427C17.689 12.3471 17.5781 12.3011 17.4651 12.3011C17.3521 12.3011 17.2412 12.3471 17.1613 12.427C17.0814 12.5069 17.0354 12.6178 17.0354 12.7308C17.0354 12.8438 17.0814 12.9547 17.1613 13.0346C17.2412 13.1145 17.3521 13.1605 17.4651 13.1605C17.5781 13.1605 17.689 13.1145 17.7689 13.0346C17.8488 12.9547 17.8948 12.8438 17.8948 12.7308C17.8948 12.6178 17.8488 12.5069 17.7689 12.427Z" fill="#575C73"/>
<path d="M13.0401 4.23747C12.9602 4.15712 12.8493 4.11157 12.7363 4.11157C12.6233 4.11157 12.5125 4.15712 12.4325 4.23747C12.3526 4.31739 12.3066 4.42787 12.3066 4.54126C12.3066 4.65427 12.3526 4.76513 12.4325 4.84505C12.5125 4.92493 12.6233 4.97095 12.7363 4.97095C12.8493 4.97095 12.9602 4.92497 13.0401 4.84505C13.12 4.7647 13.166 4.65427 13.166 4.54126C13.166 4.42825 13.12 4.31739 13.0401 4.23747Z" fill="#575C73"/>
<path d="M8.97068 17.7638C9.05061 17.8442 9.16151 17.8898 9.2749 17.8898C9.38791 17.8898 9.49834 17.8442 9.57869 17.7638C9.65861 17.684 9.70459 17.5731 9.70459 17.4601C9.70459 17.3471 9.65866 17.2362 9.57869 17.1563C9.49834 17.0764 9.38791 17.0304 9.2749 17.0304C9.16146 17.0304 9.05104 17.0763 8.97068 17.1563C8.8908 17.2362 8.84521 17.3471 8.84521 17.4601C8.84521 17.5735 8.89076 17.684 8.97068 17.7638Z" fill="#575C73"/>
<path d="M18.4722 3.95312C18.5852 3.95312 18.6956 3.90715 18.776 3.82718C18.8559 3.7473 18.9014 3.63645 18.9014 3.52344C18.9014 3.41043 18.8559 3.29957 18.776 3.21965C18.696 3.13973 18.5852 3.09375 18.4722 3.09375C18.3587 3.09375 18.2483 3.13968 18.1679 3.21965C18.0881 3.29957 18.0425 3.41043 18.0425 3.52344C18.0425 3.63645 18.0881 3.7473 18.1679 3.82718C18.2483 3.90715 18.3588 3.95312 18.4722 3.95312Z" fill="#575C73"/>
</svg>
